<svg xmlns="http://www.w3.org/2000/svg" xmlns:xlink="http://www.w3.org/1999/xlink" width="1080" zoomAndPan="magnify" viewBox="0 0 810 809.999993" height="1080" preserveAspectRatio="xMidYMid meet" version="1.0"><defs><g/></defs><path fill="#1800ad" d="M 385.246094 32.015625 C 397.472656 25.15625 412.527344 25.15625 424.734375 32.015625 C 485.144531 65.921875 666.9375 167.980469 727.367188 201.886719 C 739.59375 208.730469 747.121094 221.40625 747.121094 235.128906 C 747.121094 302.9375 747.121094 507.039062 747.121094 574.851562 C 747.121094 588.574219 739.59375 601.25 727.367188 608.109375 C 666.953125 642.015625 485.164062 744.074219 424.734375 777.980469 C 412.507812 784.84375 397.453125 784.84375 385.246094 777.980469 C 324.835938 744.074219 143.042969 642.015625 82.613281 608.109375 C 70.40625 601.25 62.878906 588.589844 62.878906 574.871094 C 62.878906 507.058594 62.878906 302.957031 62.878906 235.144531 C 62.878906 221.425781 70.40625 208.746094 82.632812 201.886719 C 143.023438 167.980469 324.851562 65.921875 385.246094 32.015625 Z M 385.246094 32.015625 " fill-opacity="1" fill-rule="nonzero"/><path fill="#5e17eb" d="M 68.351562 592.335938 C 63.5625 585.925781 62.878906 579.839844 62.878906 571.648438 C 62.878906 504.230469 62.878906 301.300781 62.878906 233.867188 C 62.878906 220.21875 70.386719 207.613281 82.578125 200.808594 C 142.773438 167.097656 323.953125 65.632812 384.148438 31.90625 C 396.335938 25.082031 412.847656 25.226562 425.039062 32.050781 C 485.234375 65.757812 665.800781 166.359375 725.996094 200.070312 C 730.859375 202.804688 734.570312 206.101562 737.882812 210.441406 Z M 68.351562 592.335938 " fill-opacity="1" fill-rule="nonzero"/><path fill="#ffffff" d="M 405 152.910156 C 265.808594 152.910156 152.910156 265.808594 152.910156 405 C 152.910156 544.1875 265.808594 657.085938 405 657.085938 C 544.1875 657.085938 657.085938 544.1875 657.085938 405 C 657.085938 265.808594 544.1875 152.910156 405 152.910156 Z M 405 531.042969 C 335.496094 531.042969 278.953125 474.503906 278.953125 405 C 278.953125 335.496094 335.496094 278.953125 405 278.953125 C 474.503906 278.953125 531.042969 335.496094 531.042969 405 C 531.042969 474.503906 474.503906 531.042969 405 531.042969 Z M 405 531.042969 " fill-opacity="1" fill-rule="nonzero"/><path fill="#004aad" d="M 737.847656 210.621094 C 747.136719 219.316406 746.957031 232.425781 746.957031 242.742188 C 746.957031 311.078125 746.382812 505.4375 747.121094 573.773438 C 747.191406 580.902344 744.832031 588.410156 741.304688 594.066406 L 397.671875 405 Z M 737.847656 210.621094 " fill-opacity="1" fill-rule="nonzero"/><path fill="#ffffff" d="M 585.0625 332.972656 L 603.070312 332.972656 L 603.070312 477.023438 L 585.0625 477.023438 Z M 639.082031 332.972656 L 657.085938 332.972656 L 657.085938 477.023438 L 639.082031 477.023438 Z M 639.082031 332.972656 " fill-opacity="1" fill-rule="nonzero"/><path fill="#ffffff" d="M 549.050781 423.003906 L 693.101562 423.003906 L 693.101562 441.011719 L 549.050781 441.011719 Z M 549.050781 368.984375 L 693.101562 368.984375 L 693.101562 386.992188 L 549.050781 386.992188 Z M 549.050781 368.984375 " fill-opacity="1" fill-rule="nonzero"/><g fill="#000000" fill-opacity="1"><g transform="translate(384.578099, 607.192909)"><g><path d="M 11.84375 0.3125 C 9.96875 0.3125 8.296875 -0.113281 6.828125 -0.96875 C 5.359375 -1.832031 4.207031 -3.09375 3.375 -4.75 C 2.550781 -6.40625 2.140625 -8.390625 2.140625 -10.703125 C 2.140625 -13.023438 2.550781 -15.007812 3.375 -16.65625 C 4.207031 -18.3125 5.359375 -19.566406 6.828125 -20.421875 C 8.296875 -21.285156 9.96875 -21.71875 11.84375 -21.71875 C 13.84375 -21.71875 15.503906 -21.335938 16.828125 -20.578125 C 18.160156 -19.828125 19.117188 -18.691406 19.703125 -17.171875 L 18.09375 -16.09375 L 17.71875 -16.09375 C 17.132812 -17.320312 16.375 -18.191406 15.4375 -18.703125 C 14.5 -19.210938 13.300781 -19.46875 11.84375 -19.46875 C 10.488281 -19.46875 9.289062 -19.164062 8.25 -18.5625 C 7.207031 -17.96875 6.375 -17.015625 5.75 -15.703125 C 5.132812 -14.398438 4.828125 -12.734375 4.828125 -10.703125 C 4.828125 -8.671875 5.132812 -7.003906 5.75 -5.703125 C 6.375 -4.410156 7.207031 -3.460938 8.25 -2.859375 C 9.289062 -2.265625 10.488281 -1.96875 11.84375 -1.96875 C 13.394531 -1.96875 14.660156 -2.316406 15.640625 -3.015625 C 16.628906 -3.710938 17.363281 -4.84375 17.84375 -6.40625 L 18.203125 -6.40625 L 19.890625 -5.5625 C 19.378906 -3.664062 18.4375 -2.210938 17.0625 -1.203125 C 15.695312 -0.191406 13.957031 0.3125 11.84375 0.3125 Z M 11.84375 0.3125 "/></g></g><g transform="translate(405.583957, 607.192909)"><g><path d="M 18.484375 -15.0625 L 18.484375 -13.09375 L 14.9375 -13.09375 L 14.140625 -8.328125 L 17.65625 -8.328125 L 17.65625 -6.375 L 13.796875 -6.375 L 12.734375 0 L 10.5625 0 L 11.625 -6.375 L 6.71875 -6.375 L 5.65625 0 L 3.484375 0 L 4.5625 -6.375 L 1.34375 -6.375 L 1.34375 -8.328125 L 4.890625 -8.328125 L 5.703125 -13.09375 L 2.171875 -13.09375 L 2.171875 -15.0625 L 6.03125 -15.0625 L 7.109375 -21.421875 L 9.265625 -21.421875 L 8.203125 -15.0625 L 13.09375 -15.0625 L 14.171875 -21.421875 L 16.34375 -21.421875 L 15.28125 -15.0625 Z M 7.0625 -8.328125 L 11.96875 -8.328125 L 12.765625 -13.09375 L 7.859375 -13.09375 Z M 7.0625 -8.328125 "/></g></g></g></svg>