<svg xmlns="http://www.w3.org/2000/svg" xmlns:xlink="http://www.w3.org/1999/xlink" width="1080" zoomAndPan="magnify" viewBox="0 0 810 809.999993" height="1080" preserveAspectRatio="xMidYMid meet" version="1.0"><defs><g/></defs><path fill="#4e7896" d="M 322.730469 431.945312 C 322.730469 431.945312 301.265625 445.003906 337.664062 448.738281 C 381.527344 454.332031 404.855469 453.402344 453.386719 444.074219 C 453.386719 444.074219 466.453125 452.46875 484.183594 459 C 374.992188 505.644531 236.863281 456.199219 322.734375 431.945312 Z M 308.730469 371.304688 C 308.730469 371.304688 285.402344 389.03125 321.796875 392.765625 C 369.394531 397.429688 406.726562 398.359375 471.117188 385.300781 C 471.117188 385.300781 479.519531 394.628906 493.515625 399.292969 C 361.929688 438.476562 214.464844 403.023438 308.730469 371.308594 Z M 566.316406 477.648438 C 566.316406 477.648438 582.183594 490.707031 548.585938 500.96875 C 486.054688 519.628906 286.34375 525.226562 230.339844 500.96875 C 210.742188 492.578125 248.070312 480.445312 260.203125 478.578125 C 272.332031 475.78125 278.867188 475.78125 278.867188 475.78125 C 257.402344 460.855469 136.078125 506.566406 217.269531 519.628906 C 440.320312 556.011719 624.171875 503.769531 566.316406 477.644531 Z M 333.003906 307.859375 C 333.003906 307.859375 231.277344 332.113281 296.605469 340.511719 C 324.605469 344.242188 379.667969 343.308594 430.996094 339.574219 C 472.992188 335.84375 514.992188 328.378906 514.992188 328.378906 C 514.992188 328.378906 500.058594 334.910156 489.792969 341.4375 C 386.199219 368.492188 187.421875 356.367188 244.34375 328.378906 C 292.871094 305.054688 333 307.855469 333 307.855469 Z M 514.988281 409.546875 C 619.511719 355.4375 570.984375 303.195312 537.386719 309.722656 C 528.984375 311.589844 525.253906 313.453125 525.253906 313.453125 C 525.253906 313.453125 528.054688 307.855469 534.585938 305.992188 C 600.847656 282.667969 653.109375 375.957031 513.121094 412.339844 C 513.121094 412.339844 514.054688 411.40625 514.988281 409.542969 Z M 343.265625 556.945312 C 444.058594 563.476562 598.03125 553.214844 601.785156 505.632812 C 601.785156 505.632812 594.320312 524.292969 518.726562 538.285156 C 432.867188 554.144531 326.476562 552.277344 263.964844 542.015625 C 263.964844 542.015625 277.03125 553.214844 343.292969 556.941406 Z M 343.265625 556.945312 " fill-opacity="1" fill-rule="nonzero"/><path fill="#f58219" d="M 451.519531 0 C 451.519531 0 509.378906 58.773438 396.457031 147.398438 C 305.929688 219.234375 375.921875 260.28125 396.457031 306.925781 C 343.257812 259.347656 304.996094 217.367188 331.128906 178.183594 C 369.398438 120.34375 474.863281 92.378906 451.527344 0 Z M 421.671875 267.75 C 448.738281 298.535156 414.207031 326.523438 414.207031 326.523438 C 414.207031 326.523438 483.265625 291.074219 451.535156 247.226562 C 422.605469 205.246094 400.207031 184.722656 521.527344 114.773438 C 521.527344 114.773438 330.214844 162.351562 421.667969 267.769531 Z M 352.597656 768.707031 L 352.597656 677.28125 C 352.597656 653.957031 339.53125 638.097656 306.867188 638.097656 C 288.203125 638.097656 272.335938 642.761719 258.339844 648.34375 L 263.007812 665.136719 C 273.253906 661.40625 286.335938 657.671875 300.335938 657.671875 C 318.070312 657.671875 326.46875 665.136719 326.46875 680.0625 L 326.46875 692.191406 L 317.136719 692.191406 C 272.339844 692.191406 251.808594 708.984375 251.808594 736.035156 C 251.808594 758.425781 265.804688 771.488281 291.003906 771.488281 C 306.871094 771.488281 319.003906 764.023438 330.203125 754.695312 L 332.070312 768.6875 L 352.601562 768.6875 Z M 326.464844 738.855469 C 317.132812 747.25 306.867188 751.914062 297.535156 751.914062 C 285.402344 751.914062 277.9375 744.453125 277.9375 731.390625 C 277.9375 718.332031 285.402344 709 315.265625 709 L 326.46875 709 L 326.46875 738.835938 Z M 440.328125 768.707031 L 407.660156 768.707031 L 368.46875 640.898438 L 396.464844 640.898438 L 420.730469 719.261719 L 426.328125 742.585938 C 438.460938 709 447.796875 674.480469 451.527344 640.898438 L 479.527344 640.898438 C 472.058594 682.878906 458.992188 728.589844 440.332031 768.707031 Z M 591.511719 768.707031 L 591.511719 677.28125 C 591.511719 653.957031 578.445312 638.097656 545.78125 638.097656 C 527.117188 638.097656 511.25 642.761719 497.25 648.34375 L 500.984375 665.136719 C 512.1875 661.40625 525.25 657.671875 539.25 657.671875 C 556.984375 657.671875 565.382812 665.136719 565.382812 680.0625 L 565.382812 692.191406 L 556.050781 692.191406 C 511.253906 692.191406 490.722656 708.984375 490.722656 736.035156 C 490.722656 758.425781 503.785156 771.488281 528.984375 771.488281 C 545.785156 771.488281 557.917969 764.023438 569.113281 754.695312 L 570.980469 768.6875 L 591.511719 768.6875 Z M 565.382812 738.855469 C 556.050781 747.25 545.785156 751.914062 536.449219 751.914062 C 524.316406 751.914062 516.851562 744.453125 516.851562 731.390625 C 516.851562 718.332031 524.320312 709 554.183594 709 L 565.382812 709 Z M 222.878906 790.164062 C 215.414062 801.363281 204.214844 809.753906 190.214844 814.421875 L 178.078125 799.503906 C 187.40625 793.90625 196.742188 785.511719 200.476562 778.046875 C 204.207031 771.515625 205.144531 762.183594 205.144531 740.730469 L 205.144531 595.195312 L 233.140625 595.195312 L 233.140625 738.867188 C 233.140625 767.78125 230.34375 778.980469 222.894531 790.175781 Z M 222.878906 790.164062 " fill-opacity="1" fill-rule="nonzero"/><g fill="#000000" fill-opacity="1"><g transform="translate(702.555492, 29.250019)"><g><path d="M 4.015625 -19.28125 C 3.503906 -19.28125 3.085938 -19.4375 2.765625 -19.75 C 2.453125 -20.070312 2.296875 -20.476562 2.296875 -20.96875 C 2.296875 -21.445312 2.453125 -21.84375 2.765625 -22.15625 C 3.085938 -22.476562 3.503906 -22.640625 4.015625 -22.640625 C 4.523438 -22.640625 4.9375 -22.476562 5.25 -22.15625 C 5.570312 -21.84375 5.734375 -21.445312 5.734375 -20.96875 C 5.734375 -20.476562 5.570312 -20.070312 5.25 -19.75 C 4.9375 -19.4375 4.523438 -19.28125 4.015625 -19.28125 Z M 0.796875 6.859375 C 0.285156 6.859375 -0.160156 6.820312 -0.546875 6.75 C -0.941406 6.675781 -1.320312 6.570312 -1.6875 6.4375 L -1.3125 4.578125 L -1.046875 4.5 C -0.554688 4.6875 -0.0546875 4.78125 0.453125 4.78125 C 1.210938 4.78125 1.796875 4.523438 2.203125 4.015625 C 2.609375 3.515625 2.8125 2.796875 2.8125 1.859375 L 2.8125 -16.15625 L 5.203125 -16.15625 L 5.203125 1.765625 C 5.203125 3.390625 4.816406 4.644531 4.046875 5.53125 C 3.273438 6.414062 2.191406 6.859375 0.796875 6.859375 Z M 0.796875 6.859375 "/></g></g><g transform="translate(710.568186, 29.250019)"><g><path d="M 6.671875 0.3125 C 5.078125 0.3125 3.832031 -0.101562 2.9375 -0.9375 C 2.039062 -1.769531 1.59375 -2.957031 1.59375 -4.5 C 1.59375 -5.457031 1.789062 -6.265625 2.1875 -6.921875 C 2.582031 -7.578125 3.195312 -8.113281 4.03125 -8.53125 C 4.863281 -8.945312 5.945312 -9.269531 7.28125 -9.5 C 8.445312 -9.6875 9.335938 -9.898438 9.953125 -10.140625 C 10.566406 -10.390625 10.976562 -10.664062 11.1875 -10.96875 C 11.394531 -11.269531 11.5 -11.648438 11.5 -12.109375 C 11.5 -12.847656 11.242188 -13.410156 10.734375 -13.796875 C 10.234375 -14.191406 9.429688 -14.390625 8.328125 -14.390625 C 7.273438 -14.390625 6.375 -14.1875 5.625 -13.78125 C 4.882812 -13.375 4.203125 -12.769531 3.578125 -11.96875 L 3.28125 -11.96875 L 2.109375 -13.625 C 2.796875 -14.488281 3.664062 -15.175781 4.71875 -15.6875 C 5.769531 -16.207031 6.972656 -16.46875 8.328125 -16.46875 C 10.222656 -16.46875 11.625 -16.046875 12.53125 -15.203125 C 13.4375 -14.367188 13.890625 -13.21875 13.890625 -11.75 L 13.890625 -3.171875 C 13.890625 -2.273438 14.269531 -1.828125 15.03125 -1.828125 C 15.28125 -1.828125 15.523438 -1.875 15.765625 -1.96875 L 15.96875 -1.90625 L 16.25 -0.25 C 16.070312 -0.132812 15.835938 -0.046875 15.546875 0.015625 C 15.265625 0.0859375 14.96875 0.125 14.65625 0.125 C 13.769531 0.125 13.097656 -0.0703125 12.640625 -0.46875 C 12.191406 -0.863281 11.90625 -1.441406 11.78125 -2.203125 L 11.46875 -2.234375 C 11.007812 -1.378906 10.390625 -0.738281 9.609375 -0.3125 C 8.828125 0.101562 7.847656 0.3125 6.671875 0.3125 Z M 7.1875 -1.59375 C 8.09375 -1.59375 8.875 -1.800781 9.53125 -2.21875 C 10.1875 -2.632812 10.691406 -3.21875 11.046875 -3.96875 C 11.398438 -4.71875 11.578125 -5.585938 11.578125 -6.578125 L 11.578125 -8.625 L 11.296875 -8.6875 C 10.929688 -8.4375 10.488281 -8.222656 9.96875 -8.046875 C 9.457031 -7.878906 8.738281 -7.726562 7.8125 -7.59375 C 6.875 -7.457031 6.128906 -7.257812 5.578125 -7 C 5.023438 -6.738281 4.628906 -6.40625 4.390625 -6 C 4.160156 -5.59375 4.046875 -5.09375 4.046875 -4.5 C 4.046875 -3.550781 4.320312 -2.828125 4.875 -2.328125 C 5.4375 -1.835938 6.207031 -1.59375 7.1875 -1.59375 Z M 7.1875 -1.59375 "/></g></g><g transform="translate(727.282053, 29.250019)"><g><path d="M 10.21875 0 L 6.9375 0 L 0.796875 -16.15625 L 3.375 -16.15625 L 8.453125 -2.71875 L 8.796875 -2.71875 L 13.828125 -16.15625 L 16.34375 -16.15625 Z M 10.21875 0 "/></g></g><g transform="translate(744.406075, 29.250019)"><g><path d="M 6.671875 0.3125 C 5.078125 0.3125 3.832031 -0.101562 2.9375 -0.9375 C 2.039062 -1.769531 1.59375 -2.957031 1.59375 -4.5 C 1.59375 -5.457031 1.789062 -6.265625 2.1875 -6.921875 C 2.582031 -7.578125 3.195312 -8.113281 4.03125 -8.53125 C 4.863281 -8.945312 5.945312 -9.269531 7.28125 -9.5 C 8.445312 -9.6875 9.335938 -9.898438 9.953125 -10.140625 C 10.566406 -10.390625 10.976562 -10.664062 11.1875 -10.96875 C 11.394531 -11.269531 11.5 -11.648438 11.5 -12.109375 C 11.5 -12.847656 11.242188 -13.410156 10.734375 -13.796875 C 10.234375 -14.191406 9.429688 -14.390625 8.328125 -14.390625 C 7.273438 -14.390625 6.375 -14.1875 5.625 -13.78125 C 4.882812 -13.375 4.203125 -12.769531 3.578125 -11.96875 L 3.28125 -11.96875 L 2.109375 -13.625 C 2.796875 -14.488281 3.664062 -15.175781 4.71875 -15.6875 C 5.769531 -16.207031 6.972656 -16.46875 8.328125 -16.46875 C 10.222656 -16.46875 11.625 -16.046875 12.53125 -15.203125 C 13.4375 -14.367188 13.890625 -13.21875 13.890625 -11.75 L 13.890625 -3.171875 C 13.890625 -2.273438 14.269531 -1.828125 15.03125 -1.828125 C 15.28125 -1.828125 15.523438 -1.875 15.765625 -1.96875 L 15.96875 -1.90625 L 16.25 -0.25 C 16.070312 -0.132812 15.835938 -0.046875 15.546875 0.015625 C 15.265625 0.0859375 14.96875 0.125 14.65625 0.125 C 13.769531 0.125 13.097656 -0.0703125 12.640625 -0.46875 C 12.191406 -0.863281 11.90625 -1.441406 11.78125 -2.203125 L 11.46875 -2.234375 C 11.007812 -1.378906 10.390625 -0.738281 9.609375 -0.3125 C 8.828125 0.101562 7.847656 0.3125 6.671875 0.3125 Z M 7.1875 -1.59375 C 8.09375 -1.59375 8.875 -1.800781 9.53125 -2.21875 C 10.1875 -2.632812 10.691406 -3.21875 11.046875 -3.96875 C 11.398438 -4.71875 11.578125 -5.585938 11.578125 -6.578125 L 11.578125 -8.625 L 11.296875 -8.6875 C 10.929688 -8.4375 10.488281 -8.222656 9.96875 -8.046875 C 9.457031 -7.878906 8.738281 -7.726562 7.8125 -7.59375 C 6.875 -7.457031 6.128906 -7.257812 5.578125 -7 C 5.023438 -6.738281 4.628906 -6.40625 4.390625 -6 C 4.160156 -5.59375 4.046875 -5.09375 4.046875 -4.5 C 4.046875 -3.550781 4.320312 -2.828125 4.875 -2.328125 C 5.4375 -1.835938 6.207031 -1.59375 7.1875 -1.59375 Z M 7.1875 -1.59375 "/></g></g></g></svg>