<svg xmlns="http://www.w3.org/2000/svg" xmlns:xlink="http://www.w3.org/1999/xlink" width="1080" zoomAndPan="magnify" viewBox="0 0 810 809.999993" height="1080" preserveAspectRatio="xMidYMid meet" version="1.0"><defs><g/></defs><path fill="#eee400" d="M 620.785156 746.496094 C 550.121094 746.496094 504.417969 712.800781 482.144531 668.738281 L 544.109375 632.835938 C 560.4375 659.503906 581.613281 679.054688 619.148438 679.054688 C 650.65625 679.054688 670.777344 663.292969 670.777344 641.535156 C 670.777344 608.828125 627.117188 596.015625 596.304688 582.828125 C 541.386719 559.449219 504.9375 530.078125 504.9375 468.082031 C 504.9375 411.007812 548.433594 367.527344 616.441406 367.527344 C 664.800781 367.527344 699.628906 384.375 724.609375 428.390625 L 665.351562 466.460938 C 652.308594 443.085938 638.183594 433.851562 616.425781 433.851562 C 594.117188 433.851562 579.976562 447.996094 579.976562 466.460938 C 579.976562 489.304688 594.101562 498.539062 626.746094 512.679688 C 695.140625 541.984375 746.902344 565.039062 746.902344 640.449219 C 746.933594 708.992188 693.117188 746.496094 620.785156 746.496094 Z M 445.5 631.769531 C 445.5 710.613281 396.933594 752.296875 329.507812 752.296875 C 268.597656 752.296875 232.113281 729 214.164062 688.5 L 213.109375 688.5 L 275.027344 645.214844 C 286.984375 666.386719 297.757812 681.421875 323.839844 681.421875 C 348.867188 681.421875 364.5 668.753906 364.5 630.714844 L 364.5 364.5 L 445.5 364.5 Z M 0 810 L 810 810 L 810 0 L 0 0 Z M 0 810 " fill-opacity="1" fill-rule="evenodd"/><g fill="#000000" fill-opacity="1"><g transform="translate(667.757778, 29.250019)"><g><path d="M 4.015625 -19.28125 C 3.503906 -19.28125 3.085938 -19.4375 2.765625 -19.75 C 2.453125 -20.070312 2.296875 -20.476562 2.296875 -20.96875 C 2.296875 -21.445312 2.453125 -21.84375 2.765625 -22.15625 C 3.085938 -22.476562 3.503906 -22.640625 4.015625 -22.640625 C 4.523438 -22.640625 4.9375 -22.476562 5.25 -22.15625 C 5.570312 -21.84375 5.734375 -21.445312 5.734375 -20.96875 C 5.734375 -20.476562 5.570312 -20.070312 5.25 -19.75 C 4.9375 -19.4375 4.523438 -19.28125 4.015625 -19.28125 Z M 0.796875 6.859375 C 0.285156 6.859375 -0.160156 6.820312 -0.546875 6.75 C -0.941406 6.675781 -1.320312 6.570312 -1.6875 6.4375 L -1.3125 4.578125 L -1.046875 4.5 C -0.554688 4.6875 -0.0546875 4.78125 0.453125 4.78125 C 1.210938 4.78125 1.796875 4.523438 2.203125 4.015625 C 2.609375 3.515625 2.8125 2.796875 2.8125 1.859375 L 2.8125 -16.15625 L 5.203125 -16.15625 L 5.203125 1.765625 C 5.203125 3.390625 4.816406 4.644531 4.046875 5.53125 C 3.273438 6.414062 2.191406 6.859375 0.796875 6.859375 Z M 0.796875 6.859375 "/></g></g><g transform="translate(675.770473, 29.250019)"><g><path d="M 6.671875 0.3125 C 5.078125 0.3125 3.832031 -0.101562 2.9375 -0.9375 C 2.039062 -1.769531 1.59375 -2.957031 1.59375 -4.5 C 1.59375 -5.457031 1.789062 -6.265625 2.1875 -6.921875 C 2.582031 -7.578125 3.195312 -8.113281 4.03125 -8.53125 C 4.863281 -8.945312 5.945312 -9.269531 7.28125 -9.5 C 8.445312 -9.6875 9.335938 -9.898438 9.953125 -10.140625 C 10.566406 -10.390625 10.976562 -10.664062 11.1875 -10.96875 C 11.394531 -11.269531 11.5 -11.648438 11.5 -12.109375 C 11.5 -12.847656 11.242188 -13.410156 10.734375 -13.796875 C 10.234375 -14.191406 9.429688 -14.390625 8.328125 -14.390625 C 7.273438 -14.390625 6.375 -14.1875 5.625 -13.78125 C 4.882812 -13.375 4.203125 -12.769531 3.578125 -11.96875 L 3.28125 -11.96875 L 2.109375 -13.625 C 2.796875 -14.488281 3.664062 -15.175781 4.71875 -15.6875 C 5.769531 -16.207031 6.972656 -16.46875 8.328125 -16.46875 C 10.222656 -16.46875 11.625 -16.046875 12.53125 -15.203125 C 13.4375 -14.367188 13.890625 -13.21875 13.890625 -11.75 L 13.890625 -3.171875 C 13.890625 -2.273438 14.269531 -1.828125 15.03125 -1.828125 C 15.28125 -1.828125 15.523438 -1.875 15.765625 -1.96875 L 15.96875 -1.90625 L 16.25 -0.25 C 16.070312 -0.132812 15.835938 -0.046875 15.546875 0.015625 C 15.265625 0.0859375 14.96875 0.125 14.65625 0.125 C 13.769531 0.125 13.097656 -0.0703125 12.640625 -0.46875 C 12.191406 -0.863281 11.90625 -1.441406 11.78125 -2.203125 L 11.46875 -2.234375 C 11.007812 -1.378906 10.390625 -0.738281 9.609375 -0.3125 C 8.828125 0.101562 7.847656 0.3125 6.671875 0.3125 Z M 7.1875 -1.59375 C 8.09375 -1.59375 8.875 -1.800781 9.53125 -2.21875 C 10.1875 -2.632812 10.691406 -3.21875 11.046875 -3.96875 C 11.398438 -4.71875 11.578125 -5.585938 11.578125 -6.578125 L 11.578125 -8.625 L 11.296875 -8.6875 C 10.929688 -8.4375 10.488281 -8.222656 9.96875 -8.046875 C 9.457031 -7.878906 8.738281 -7.726562 7.8125 -7.59375 C 6.875 -7.457031 6.128906 -7.257812 5.578125 -7 C 5.023438 -6.738281 4.628906 -6.40625 4.390625 -6 C 4.160156 -5.59375 4.046875 -5.09375 4.046875 -4.5 C 4.046875 -3.550781 4.320312 -2.828125 4.875 -2.328125 C 5.4375 -1.835938 6.207031 -1.59375 7.1875 -1.59375 Z M 7.1875 -1.59375 "/></g></g><g transform="translate(692.484339, 29.250019)"><g><path d="M 10.21875 0 L 6.9375 0 L 0.796875 -16.15625 L 3.375 -16.15625 L 8.453125 -2.71875 L 8.796875 -2.71875 L 13.828125 -16.15625 L 16.34375 -16.15625 Z M 10.21875 0 "/></g></g><g transform="translate(709.608362, 29.250019)"><g><path d="M 6.671875 0.3125 C 5.078125 0.3125 3.832031 -0.101562 2.9375 -0.9375 C 2.039062 -1.769531 1.59375 -2.957031 1.59375 -4.5 C 1.59375 -5.457031 1.789062 -6.265625 2.1875 -6.921875 C 2.582031 -7.578125 3.195312 -8.113281 4.03125 -8.53125 C 4.863281 -8.945312 5.945312 -9.269531 7.28125 -9.5 C 8.445312 -9.6875 9.335938 -9.898438 9.953125 -10.140625 C 10.566406 -10.390625 10.976562 -10.664062 11.1875 -10.96875 C 11.394531 -11.269531 11.5 -11.648438 11.5 -12.109375 C 11.5 -12.847656 11.242188 -13.410156 10.734375 -13.796875 C 10.234375 -14.191406 9.429688 -14.390625 8.328125 -14.390625 C 7.273438 -14.390625 6.375 -14.1875 5.625 -13.78125 C 4.882812 -13.375 4.203125 -12.769531 3.578125 -11.96875 L 3.28125 -11.96875 L 2.109375 -13.625 C 2.796875 -14.488281 3.664062 -15.175781 4.71875 -15.6875 C 5.769531 -16.207031 6.972656 -16.46875 8.328125 -16.46875 C 10.222656 -16.46875 11.625 -16.046875 12.53125 -15.203125 C 13.4375 -14.367188 13.890625 -13.21875 13.890625 -11.75 L 13.890625 -3.171875 C 13.890625 -2.273438 14.269531 -1.828125 15.03125 -1.828125 C 15.28125 -1.828125 15.523438 -1.875 15.765625 -1.96875 L 15.96875 -1.90625 L 16.25 -0.25 C 16.070312 -0.132812 15.835938 -0.046875 15.546875 0.015625 C 15.265625 0.0859375 14.96875 0.125 14.65625 0.125 C 13.769531 0.125 13.097656 -0.0703125 12.640625 -0.46875 C 12.191406 -0.863281 11.90625 -1.441406 11.78125 -2.203125 L 11.46875 -2.234375 C 11.007812 -1.378906 10.390625 -0.738281 9.609375 -0.3125 C 8.828125 0.101562 7.847656 0.3125 6.671875 0.3125 Z M 7.1875 -1.59375 C 8.09375 -1.59375 8.875 -1.800781 9.53125 -2.21875 C 10.1875 -2.632812 10.691406 -3.21875 11.046875 -3.96875 C 11.398438 -4.71875 11.578125 -5.585938 11.578125 -6.578125 L 11.578125 -8.625 L 11.296875 -8.6875 C 10.929688 -8.4375 10.488281 -8.222656 9.96875 -8.046875 C 9.457031 -7.878906 8.738281 -7.726562 7.8125 -7.59375 C 6.875 -7.457031 6.128906 -7.257812 5.578125 -7 C 5.023438 -6.738281 4.628906 -6.40625 4.390625 -6 C 4.160156 -5.59375 4.046875 -5.09375 4.046875 -4.5 C 4.046875 -3.550781 4.320312 -2.828125 4.875 -2.328125 C 5.4375 -1.835938 6.207031 -1.59375 7.1875 -1.59375 Z M 7.1875 -1.59375 "/></g></g><g transform="translate(726.322228, 29.250019)"><g><path d="M 7.375 0.3125 C 6.351562 0.3125 5.410156 0.175781 4.546875 -0.09375 C 3.679688 -0.363281 2.953125 -0.734375 2.359375 -1.203125 C 1.765625 -1.671875 1.34375 -2.195312 1.09375 -2.78125 L 2.5 -4.25 L 2.8125 -4.25 C 3.34375 -3.445312 3.976562 -2.84375 4.71875 -2.4375 C 5.457031 -2.03125 6.34375 -1.828125 7.375 -1.828125 C 8.5625 -1.828125 9.460938 -2.054688 10.078125 -2.515625 C 10.703125 -2.984375 11.015625 -3.632812 11.015625 -4.46875 C 11.015625 -5.101562 10.828125 -5.628906 10.453125 -6.046875 C 10.078125 -6.460938 9.46875 -6.769531 8.625 -6.96875 L 5.90625 -7.640625 C 4.445312 -7.992188 3.382812 -8.550781 2.71875 -9.3125 C 2.050781 -10.070312 1.71875 -11.015625 1.71875 -12.140625 C 1.71875 -13.023438 1.941406 -13.789062 2.390625 -14.4375 C 2.835938 -15.082031 3.484375 -15.582031 4.328125 -15.9375 C 5.171875 -16.289062 6.175781 -16.46875 7.34375 -16.46875 C 8.820312 -16.46875 9.988281 -16.257812 10.84375 -15.84375 C 11.695312 -15.425781 12.363281 -14.847656 12.84375 -14.109375 L 11.5 -12.78125 L 11.203125 -12.78125 C 10.691406 -13.382812 10.128906 -13.816406 9.515625 -14.078125 C 8.898438 -14.335938 8.175781 -14.46875 7.34375 -14.46875 C 6.28125 -14.46875 5.460938 -14.273438 4.890625 -13.890625 C 4.328125 -13.515625 4.046875 -12.96875 4.046875 -12.25 C 4.046875 -11.59375 4.242188 -11.0625 4.640625 -10.65625 C 5.046875 -10.257812 5.742188 -9.941406 6.734375 -9.703125 L 9.421875 -9.046875 C 10.828125 -8.722656 11.84375 -8.171875 12.46875 -7.390625 C 13.09375 -6.617188 13.40625 -5.65625 13.40625 -4.5 C 13.40625 -3.550781 13.179688 -2.710938 12.734375 -1.984375 C 12.285156 -1.265625 11.601562 -0.703125 10.6875 -0.296875 C 9.78125 0.109375 8.675781 0.3125 7.375 0.3125 Z M 7.375 0.3125 "/></g></g><g transform="translate(741.263634, 29.250019)"><g><path d="M 9.265625 0.3125 C 7.847656 0.3125 6.570312 -0.0078125 5.4375 -0.65625 C 4.300781 -1.3125 3.40625 -2.269531 2.75 -3.53125 C 2.09375 -4.800781 1.765625 -6.316406 1.765625 -8.078125 C 1.765625 -9.835938 2.09375 -11.347656 2.75 -12.609375 C 3.40625 -13.878906 4.300781 -14.835938 5.4375 -15.484375 C 6.570312 -16.140625 7.847656 -16.46875 9.265625 -16.46875 C 10.984375 -16.46875 12.347656 -16.144531 13.359375 -15.5 C 14.367188 -14.851562 15.097656 -13.992188 15.546875 -12.921875 L 13.921875 -11.75 L 13.625 -11.75 C 13.1875 -12.632812 12.625 -13.285156 11.9375 -13.703125 C 11.25 -14.117188 10.359375 -14.328125 9.265625 -14.328125 C 8.273438 -14.328125 7.398438 -14.09375 6.640625 -13.625 C 5.890625 -13.15625 5.304688 -12.453125 4.890625 -11.515625 C 4.484375 -10.578125 4.28125 -9.429688 4.28125 -8.078125 C 4.28125 -6.722656 4.488281 -5.578125 4.90625 -4.640625 C 5.320312 -3.710938 5.90625 -3.007812 6.65625 -2.53125 C 7.40625 -2.0625 8.273438 -1.828125 9.265625 -1.828125 C 10.390625 -1.828125 11.320312 -2.082031 12.0625 -2.59375 C 12.800781 -3.101562 13.378906 -3.90625 13.796875 -5 L 14.109375 -5 L 15.671875 -4.078125 C 15.253906 -2.710938 14.503906 -1.640625 13.421875 -0.859375 C 12.347656 -0.078125 10.960938 0.3125 9.265625 0.3125 Z M 9.265625 0.3125 "/></g></g><g transform="translate(757.918906, 29.250019)"><g><path d="M 2.8125 0 L 2.8125 -16.15625 L 5.078125 -16.15625 L 5.078125 -13.625 L 5.390625 -13.546875 C 6.140625 -15.378906 7.554688 -16.296875 9.640625 -16.296875 C 10.742188 -16.296875 11.566406 -16.097656 12.109375 -15.703125 L 11.5 -13.6875 L 11.203125 -13.625 C 10.597656 -13.925781 9.9375 -14.078125 9.21875 -14.078125 C 7.925781 -14.078125 6.929688 -13.59375 6.234375 -12.625 C 5.546875 -11.65625 5.203125 -10.085938 5.203125 -7.921875 L 5.203125 0 Z M 2.8125 0 "/></g></g><g transform="translate(770.399375, 29.250019)"><g><path d="M 4.015625 -19.28125 C 3.503906 -19.28125 3.085938 -19.4375 2.765625 -19.75 C 2.453125 -20.070312 2.296875 -20.476562 2.296875 -20.96875 C 2.296875 -21.445312 2.453125 -21.84375 2.765625 -22.15625 C 3.085938 -22.476562 3.503906 -22.640625 4.015625 -22.640625 C 4.523438 -22.640625 4.9375 -22.476562 5.25 -22.15625 C 5.570312 -21.84375 5.734375 -21.445312 5.734375 -20.96875 C 5.734375 -20.476562 5.570312 -20.070312 5.25 -19.75 C 4.9375 -19.4375 4.523438 -19.28125 4.015625 -19.28125 Z M 2.8125 0 L 2.8125 -16.15625 L 5.203125 -16.15625 L 5.203125 0 Z M 2.8125 0 "/></g></g><g transform="translate(778.412069, 29.250019)"><g><path d="M 2.8125 6.546875 L 2.8125 -16.15625 L 5.203125 -16.15625 L 5.203125 -13.734375 L 5.515625 -13.6875 C 6.710938 -15.539062 8.472656 -16.46875 10.796875 -16.46875 C 12.140625 -16.46875 13.3125 -16.160156 14.3125 -15.546875 C 15.320312 -14.929688 16.101562 -13.992188 16.65625 -12.734375 C 17.21875 -11.484375 17.5 -9.929688 17.5 -8.078125 C 17.5 -6.222656 17.207031 -4.671875 16.625 -3.421875 C 16.039062 -2.171875 15.226562 -1.234375 14.1875 -0.609375 C 13.15625 0.00390625 11.96875 0.3125 10.625 0.3125 C 9.53125 0.3125 8.554688 0.125 7.703125 -0.25 C 6.859375 -0.632812 6.128906 -1.265625 5.515625 -2.140625 L 5.203125 -2.078125 L 5.203125 6.546875 Z M 10.09375 -1.828125 C 13.363281 -1.828125 15 -3.910156 15 -8.078125 C 15 -12.242188 13.363281 -14.328125 10.09375 -14.328125 C 9.132812 -14.328125 8.285156 -14.109375 7.546875 -13.671875 C 6.816406 -13.234375 6.242188 -12.546875 5.828125 -11.609375 C 5.410156 -10.671875 5.203125 -9.492188 5.203125 -8.078125 C 5.203125 -6.660156 5.410156 -5.484375 5.828125 -4.546875 C 6.242188 -3.617188 6.816406 -2.929688 7.546875 -2.484375 C 8.285156 -2.046875 9.132812 -1.828125 10.09375 -1.828125 Z M 10.09375 -1.828125 "/></g></g><g transform="translate(797.689412, 29.250019)"><g><path d="M 10.921875 -2.5625 L 11.6875 -0.84375 C 11.3125 -0.46875 10.8125 -0.179688 10.1875 0.015625 C 9.570312 0.210938 8.898438 0.3125 8.171875 0.3125 C 5.085938 0.3125 3.546875 -1.25 3.546875 -4.375 L 3.546875 -14.203125 L 0.734375 -14.203125 L 0.734375 -16.171875 L 3.546875 -16.171875 L 3.546875 -19.578125 L 5.9375 -19.984375 L 5.9375 -16.171875 L 11.140625 -16.171875 L 11.140625 -14.203125 L 5.9375 -14.203125 L 5.9375 -4.609375 C 5.9375 -2.753906 6.738281 -1.828125 8.34375 -1.828125 C 9.226562 -1.828125 9.988281 -2.070312 10.625 -2.5625 Z M 10.921875 -2.5625 "/></g></g></g></svg>