<svg xmlns="http://www.w3.org/2000/svg" xmlns:xlink="http://www.w3.org/1999/xlink" width="1080" zoomAndPan="magnify" viewBox="0 0 810 809.999993" height="1080" preserveAspectRatio="xMidYMid meet" version="1.0"><defs><g/></defs><g fill="#ffffff" fill-opacity="1"><g transform="translate(46.819029, 500.254668)"><g><path d="M 22.75 0 L 22.75 -175.09375 L 57.375 -175.09375 L 57.375 -103.59375 L 61.203125 -103.59375 L 119.640625 -175.09375 L 155.09375 -175.09375 L 155.09375 -172.109375 L 90.65625 -92.453125 L 161.796875 -3 L 161.796875 0 L 122.640625 0 L 61.203125 -75.578125 L 57.375 -75.578125 L 57.375 0 Z M 22.75 0 "/></g></g></g><g fill="#ffffff" fill-opacity="1"><g transform="translate(205.154019, 500.254668)"><g><path d="M 76.765625 2.515625 C 63.835938 2.515625 52.484375 -0.132812 42.703125 -5.4375 C 32.921875 -10.75 25.332031 -18.535156 19.9375 -28.796875 C 14.550781 -39.054688 11.859375 -51.453125 11.859375 -65.984375 C 11.859375 -80.515625 14.550781 -92.929688 19.9375 -103.234375 C 25.332031 -113.535156 32.921875 -121.34375 42.703125 -126.65625 C 52.484375 -131.96875 63.835938 -134.625 76.765625 -134.625 C 89.703125 -134.625 101.0625 -131.96875 110.84375 -126.65625 C 120.625 -121.34375 128.226562 -113.535156 133.65625 -103.234375 C 139.082031 -92.929688 141.796875 -80.515625 141.796875 -65.984375 C 141.796875 -51.453125 139.082031 -39.054688 133.65625 -28.796875 C 128.226562 -18.535156 120.625 -10.75 110.84375 -5.4375 C 101.0625 -0.132812 89.703125 2.515625 76.765625 2.515625 Z M 76.765625 -25.625 C 97.285156 -25.625 107.546875 -39.078125 107.546875 -65.984375 C 107.546875 -79.960938 104.910156 -90.203125 99.640625 -96.703125 C 94.367188 -103.210938 86.742188 -106.46875 76.765625 -106.46875 C 56.242188 -106.46875 45.984375 -92.972656 45.984375 -65.984375 C 45.984375 -39.078125 56.242188 -25.625 76.765625 -25.625 Z M 76.765625 -25.625 "/></g></g><g transform="translate(358.698232, 500.254668)"><g><path d="M 91.140625 -31.5 L 99.765625 -6.953125 C 96.171875 -3.992188 91.660156 -1.675781 86.234375 0 C 80.804688 1.675781 74.65625 2.515625 67.78125 2.515625 C 53.488281 2.515625 42.628906 -1.375 35.203125 -9.15625 C 27.785156 -16.945312 24.078125 -28.265625 24.078125 -43.109375 L 24.078125 -105.875 L 3.953125 -105.875 L 3.953125 -132.21875 L 24.078125 -132.21875 L 24.078125 -157.96875 L 57.25 -163.359375 L 57.25 -132.21875 L 94.734375 -132.21875 L 94.734375 -105.875 L 57.25 -105.875 L 57.25 -45.515625 C 57.25 -38.960938 58.601562 -34.1875 61.3125 -31.1875 C 64.03125 -28.195312 67.984375 -26.703125 73.171875 -26.703125 C 79.085938 -26.703125 84.238281 -28.300781 88.625 -31.5 Z M 91.140625 -31.5 "/></g></g></g><g fill="#ffffff" fill-opacity="1"><g transform="translate(461.340484, 500.254668)"><g><path d="M 54.859375 2.515625 C 42.953125 2.515625 33.863281 -0.695312 27.59375 -7.125 C 21.332031 -13.550781 18.203125 -23.3125 18.203125 -36.40625 L 18.203125 -185.15625 L 51.375 -185.15625 L 51.375 -37.71875 C 51.375 -29.65625 54.726562 -25.625 61.4375 -25.625 C 63.351562 -25.625 65.390625 -25.945312 67.546875 -26.59375 L 69.21875 -26.109375 L 72.21875 -0.59375 C 70.382812 0.363281 67.945312 1.117188 64.90625 1.671875 C 61.875 2.234375 58.523438 2.515625 54.859375 2.515625 Z M 54.859375 2.515625 "/></g></g></g><g fill="#ffffff" fill-opacity="1"><g transform="translate(537.274226, 500.254668)"><g><path d="M 35.578125 -147.90625 C 29.585938 -147.90625 24.710938 -149.722656 20.953125 -153.359375 C 17.203125 -156.992188 15.328125 -161.6875 15.328125 -167.4375 C 15.328125 -173.101562 17.203125 -177.75 20.953125 -181.375 C 24.710938 -185.007812 29.585938 -186.828125 35.578125 -186.828125 C 39.566406 -186.828125 43.117188 -185.988281 46.234375 -184.3125 C 49.347656 -182.644531 51.757812 -180.351562 53.46875 -177.4375 C 55.1875 -174.519531 56.046875 -171.1875 56.046875 -167.4375 C 56.046875 -163.675781 55.1875 -160.316406 53.46875 -157.359375 C 51.757812 -154.410156 49.347656 -152.097656 46.234375 -150.421875 C 43.117188 -148.742188 39.566406 -147.90625 35.578125 -147.90625 Z M 19.046875 0 L 19.046875 -132.109375 L 52.21875 -132.109375 L 52.21875 0 Z M 19.046875 0 "/></g></g></g><g fill="#ffffff" fill-opacity="1"><g transform="translate(608.417152, 500.254668)"><g><path d="M 19.046875 0 L 19.046875 -132.109375 L 50.90625 -132.109375 L 50.90625 -112.703125 L 53.421875 -112.09375 C 61.640625 -127.113281 74.972656 -134.625 93.421875 -134.625 C 108.671875 -134.625 119.867188 -130.46875 127.015625 -122.15625 C 134.160156 -113.851562 137.734375 -101.757812 137.734375 -85.875 L 137.734375 0 L 104.5625 0 L 104.5625 -81.796875 C 104.5625 -90.578125 102.800781 -96.90625 99.28125 -100.78125 C 95.769531 -104.65625 90.144531 -106.59375 82.40625 -106.59375 C 72.894531 -106.59375 65.484375 -103.515625 60.171875 -97.359375 C 54.867188 -91.210938 52.21875 -81.554688 52.21875 -68.390625 L 52.21875 0 Z M 19.046875 0 "/></g></g></g></svg>