<svg xmlns="http://www.w3.org/2000/svg" xmlns:xlink="http://www.w3.org/1999/xlink" width="1080" zoomAndPan="magnify" viewBox="0 0 810 809.999993" height="1080" preserveAspectRatio="xMidYMid meet" version="1.0"><defs><g/></defs><path fill="#000000" d="M 479.058594 754.886719 C 472.214844 758.109375 465.109375 760.570312 457.742188 762.277344 C 450.375 763.980469 442.910156 764.890625 435.347656 765 C 429.785156 764.941406 424.257812 764.464844 418.765625 763.566406 C 413.273438 762.671875 407.882812 761.363281 402.589844 759.648438 C 397.296875 757.933594 392.160156 755.832031 387.1875 753.335938 C 382.214844 750.84375 377.457031 747.992188 372.917969 744.773438 C 371.402344 748.652344 369.671875 752.433594 367.726562 756.113281 C 365.78125 759.796875 363.636719 763.355469 361.289062 766.796875 C 358.941406 770.238281 356.410156 773.535156 353.691406 776.6875 C 350.972656 779.839844 348.085938 782.832031 345.027344 785.660156 C 341.96875 788.488281 338.765625 791.136719 335.40625 793.601562 C 332.050781 796.070312 328.566406 798.339844 324.957031 800.414062 C 321.34375 802.484375 317.625 804.347656 313.804688 806.003906 C 309.980469 807.65625 306.078125 809.089844 302.089844 810.304688 C 304.214844 810.304688 306.238281 810.304688 308.363281 810.304688 L 546.746094 810.304688 C 543.148438 809.25 539.613281 808.019531 536.140625 806.609375 C 532.667969 805.203125 529.273438 803.625 525.957031 801.875 C 522.640625 800.125 519.421875 798.214844 516.300781 796.144531 C 513.175781 794.070312 510.164062 791.847656 507.265625 789.476562 C 504.363281 787.101562 501.589844 784.585938 498.941406 781.933594 C 496.296875 779.28125 493.789062 776.503906 491.417969 773.601562 C 489.050781 770.695312 486.832031 767.679688 484.769531 764.554688 C 482.703125 761.425781 480.800781 758.207031 479.058594 754.886719 Z M 479.058594 754.886719 " fill-opacity="1" fill-rule="nonzero"/><path fill="#000000" d="M 220.234375 592.683594 C 221.179688 592.425781 222.054688 592.019531 222.867188 591.472656 C 224.382812 578.125 226.105469 565.28125 228.027344 553.046875 C 227.621094 546.066406 228.699219 539.324219 231.265625 532.820312 C 245.125 455.054688 264.453125 400.449219 291.164062 367.28125 C 291.375 367.023438 291.605469 366.789062 291.863281 366.574219 C 292.117188 366.363281 292.390625 366.175781 292.683594 366.019531 C 292.976562 365.859375 293.28125 365.730469 293.597656 365.632812 C 293.917969 365.53125 294.242188 365.464844 294.574219 365.429688 C 294.902344 365.394531 295.234375 365.394531 295.566406 365.425781 C 295.898438 365.453125 296.222656 365.515625 296.542969 365.609375 C 296.859375 365.703125 297.167969 365.828125 297.460938 365.984375 C 297.757812 366.136719 298.03125 366.320312 298.292969 366.527344 C 298.550781 366.738281 298.785156 366.96875 299 367.226562 C 299.214844 367.480469 299.398438 367.753906 299.558594 368.046875 C 299.71875 368.339844 299.847656 368.644531 299.945312 368.960938 C 300.046875 369.277344 300.113281 369.601562 300.148438 369.933594 C 300.183594 370.261719 300.1875 370.59375 300.15625 370.925781 C 300.128906 371.257812 300.066406 371.582031 299.972656 371.902344 C 299.878906 372.21875 299.753906 372.527344 299.601562 372.820312 C 299.445312 373.117188 299.265625 373.394531 299.054688 373.652344 C 296.324219 377.089844 293.59375 380.832031 290.960938 384.773438 C 270.726562 415.113281 254.738281 461.226562 243.203125 523.214844 L 244.417969 523.214844 C 246.609375 522.875 248.800781 522.875 250.996094 523.214844 C 258.886719 524.933594 271.230469 531.503906 290.253906 550.617188 C 292.683594 439.484375 356.425781 349.886719 435.347656 349.886719 C 504.960938 349.886719 563.140625 419.964844 577 513.203125 C 578.636719 509.945312 580.519531 506.835938 582.652344 503.878906 C 584.789062 500.925781 587.144531 498.15625 589.722656 495.582031 C 592.300781 493.003906 595.070312 490.648438 598.027344 488.515625 C 600.984375 486.382812 604.09375 484.5 607.355469 482.863281 C 610.617188 481.644531 613.992188 481.003906 617.472656 480.945312 C 613.894531 464.0625 608.9375 447.589844 602.601562 431.535156 C 596.269531 415.480469 588.644531 400.0625 579.734375 385.28125 C 577.101562 381.335938 574.472656 377.59375 571.738281 374.15625 C 571.519531 373.90625 571.324219 373.636719 571.160156 373.347656 C 570.996094 373.054688 570.863281 372.753906 570.757812 372.433594 C 570.65625 372.117188 570.585938 371.792969 570.550781 371.460938 C 570.515625 371.128906 570.515625 370.796875 570.550781 370.464844 C 570.582031 370.132812 570.648438 369.804688 570.75 369.488281 C 570.851562 369.167969 570.980469 368.863281 571.144531 368.574219 C 571.308594 368.28125 571.5 368.011719 571.71875 367.757812 C 571.9375 367.507812 572.179688 367.28125 572.449219 367.078125 C 572.703125 366.863281 572.972656 366.679688 573.265625 366.519531 C 573.554688 366.359375 573.859375 366.230469 574.175781 366.132812 C 574.496094 366.035156 574.816406 365.96875 575.148438 365.933594 C 575.476562 365.902344 575.808594 365.902344 576.140625 365.933594 C 576.46875 365.96875 576.792969 366.035156 577.109375 366.132812 C 577.425781 366.230469 577.730469 366.359375 578.023438 366.515625 C 578.3125 366.675781 578.585938 366.863281 578.839844 367.074219 C 579.09375 367.289062 579.324219 367.527344 579.53125 367.785156 C 599.765625 393.269531 616.5625 431.394531 629.109375 483.066406 C 656.125 493.179688 656.832031 538.683594 657.441406 575.695312 C 657.441406 593.292969 657.441406 611.496094 661.589844 616.144531 C 665.738281 620.796875 674.539062 619.785156 686.882812 614.527344 C 688.300781 598.449219 689.007812 584.191406 689.414062 572.15625 C 689.414062 553.046875 689.414062 540.808594 689.414062 540.808594 L 689.414062 527.964844 C 689.414062 426.84375 559.292969 252 559.292969 252 L 544.21875 120.539062 C 544.21875 -0.101562 435.347656 1.011719 435.347656 1.011719 C 435.347656 1.011719 326.070312 -0.101562 326.070312 120.035156 L 311.5 252 C 311.5 252 181.382812 426.742188 181.382812 527.964844 L 181.382812 540.605469 C 181.382812 540.605469 180.875 552.84375 181.382812 571.957031 C 181.382812 574.886719 181.382812 578.023438 181.382812 581.257812 C 197.875 587.527344 214.773438 594.101562 220.234375 592.683594 Z M 434.839844 167.359375 C 465.195312 170.191406 513.558594 177.472656 515.785156 192.4375 C 517.40625 203.964844 498.6875 226.011719 494.941406 230.257812 C 487.152344 239.054688 460.035156 267.875 435.550781 267.875 C 411.0625 267.875 383.945312 239.054688 376.257812 230.257812 C 372.511719 226.011719 353.796875 203.964844 355.3125 192.4375 C 357.132812 177.167969 406.003906 170.191406 434.839844 167.359375 Z M 434.839844 167.359375 " fill-opacity="1" fill-rule="nonzero"/><path fill="#000000" d="M 435.347656 257.765625 C 448.601562 257.765625 468.9375 244.316406 487.050781 223.585938 C 500.914062 207.910156 505.972656 196.382812 505.566406 193.753906 C 503.039062 188.59375 469.949219 180.808594 434.738281 177.371094 C 400.640625 180.808594 367.554688 188.59375 365.027344 193.953125 C 366.847656 199.574219 369.332031 204.886719 372.484375 209.882812 C 375.636719 214.882812 379.355469 219.414062 383.644531 223.484375 C 401.855469 244.316406 422.09375 257.765625 435.347656 257.765625 Z M 435.347656 257.765625 " fill-opacity="1" fill-rule="nonzero"/><path fill="#000000" d="M 462.667969 693.40625 C 451.03125 586.921875 461.753906 564.875 470.863281 557.59375 C 471.976562 556.722656 473.1875 556.007812 474.488281 555.453125 C 475.792969 554.898438 477.144531 554.515625 478.546875 554.3125 C 479.949219 554.109375 481.351562 554.085938 482.761719 554.25 C 484.167969 554.414062 485.53125 554.753906 486.847656 555.269531 C 491.429688 557.53125 495.695312 560.285156 499.640625 563.53125 C 503.589844 566.777344 507.117188 570.425781 510.222656 574.484375 C 521.65625 586.921875 529.648438 594.707031 537.035156 590.460938 C 542.296875 587.324219 549.78125 570.234375 557.269531 554.5625 C 561.117188 546.167969 565.0625 537.167969 569.414062 528.574219 C 559.292969 433.414062 503.644531 360 435.75 360 C 361.179688 360 300.574219 448.484375 300.574219 557.191406 C 300.574219 558.503906 300.574219 559.820312 300.574219 561.136719 C 312.917969 574.078125 327.691406 591.472656 345.699219 614.226562 C 352.78125 623.140625 359.257812 632.480469 365.128906 642.234375 C 367.210938 645.644531 369.113281 649.152344 370.824219 652.765625 C 372.535156 656.375 374.050781 660.0625 375.371094 663.835938 C 376.691406 667.605469 377.808594 671.4375 378.722656 675.324219 C 379.636719 679.214844 380.339844 683.140625 380.835938 687.105469 C 381.332031 691.070312 381.617188 695.050781 381.6875 699.042969 C 381.761719 703.039062 381.621094 707.027344 381.273438 711.003906 C 380.921875 714.984375 380.359375 718.933594 379.589844 722.855469 C 378.820312 726.777344 377.84375 730.644531 376.660156 734.460938 C 380.882812 737.625 385.324219 740.445312 389.984375 742.914062 C 394.648438 745.386719 399.472656 747.480469 404.460938 749.199219 C 409.453125 750.914062 414.542969 752.234375 419.742188 753.152344 C 424.9375 754.074219 430.171875 754.582031 435.449219 754.683594 C 442.253906 754.660156 448.984375 753.921875 455.632812 752.472656 C 462.285156 751.023438 468.710938 748.898438 474.910156 746.089844 C 472.207031 740.015625 470.082031 733.746094 468.535156 727.28125 C 465.910156 716.105469 463.953125 704.8125 462.667969 693.40625 Z M 462.667969 693.40625 " fill-opacity="1" fill-rule="nonzero"/><path fill="#000000" d="M 337.402344 620.394531 C 323.238281 602.394531 311.199219 588.136719 300.878906 576.605469 L 295.71875 570.945312 L 290.457031 565.28125 C 267.082031 541.011719 254.738281 534.335938 248.261719 533.226562 C 247.351562 533.082031 246.441406 533.082031 245.53125 533.226562 C 244.53125 533.347656 243.628906 533.703125 242.816406 534.296875 C 242.007812 534.894531 241.394531 535.648438 240.976562 536.5625 C 240.957031 536.796875 240.957031 537.035156 240.976562 537.269531 C 238.949219 542.621094 238.175781 548.152344 238.652344 553.855469 C 238.652344 556.683594 238.652344 559.515625 238.652344 562.347656 C 238.652344 565.179688 238.652344 565.585938 238.652344 567.203125 C 238.988281 569.742188 239.117188 572.292969 239.03125 574.855469 C 238.945312 577.417969 238.648438 579.953125 238.140625 582.464844 C 237.632812 584.976562 236.921875 587.429688 236.003906 589.824219 C 235.089844 592.21875 233.980469 594.519531 232.679688 596.730469 C 231.675781 597.871094 230.527344 598.847656 229.242188 599.664062 L 227.117188 600.976562 C 225.757812 601.691406 224.339844 602.265625 222.867188 602.695312 L 221.753906 602.695312 C 213.355469 604.214844 199.695312 599.257812 182.394531 592.585938 L 177.335938 590.5625 C 155.683594 581.964844 130.386719 572.054688 111.871094 572.054688 C 109.78125 571.84375 107.695312 571.898438 105.617188 572.21875 C 103.539062 572.539062 101.539062 573.117188 99.605469 573.945312 C 97.675781 574.777344 95.882812 575.839844 94.222656 577.128906 C 92.566406 578.417969 91.09375 579.898438 89.8125 581.5625 C 76.253906 601.785156 106.609375 633.539062 131.09375 659.226562 C 146.171875 675.101562 158.007812 687.539062 159.324219 696.84375 C 161.652344 714.035156 143.640625 720.605469 127.757812 726.472656 C 119.46875 728.664062 111.980469 732.4375 105.292969 737.796875 C 102.867188 740.628906 102.96875 742.550781 103.472656 743.964844 C 105.699219 751.753906 123.710938 768.84375 218.921875 796.449219 C 229.46875 799.507812 240.160156 801.933594 250.996094 803.730469 C 253.425781 804.097656 255.863281 804.382812 258.3125 804.582031 C 260.761719 804.777344 263.210938 804.890625 265.667969 804.917969 C 268.125 804.945312 270.582031 804.886719 273.03125 804.742188 C 275.484375 804.597656 277.929688 804.371094 280.367188 804.054688 C 282.800781 803.742188 285.226562 803.34375 287.632812 802.859375 C 290.042969 802.375 292.429688 801.808594 294.800781 801.160156 C 297.167969 800.507812 299.511719 799.777344 301.832031 798.964844 C 304.148438 798.148438 306.4375 797.257812 308.691406 796.285156 C 310.945312 795.3125 313.167969 794.261719 315.347656 793.132812 C 317.53125 792.007812 319.671875 790.804688 321.769531 789.527344 C 323.867188 788.25 325.917969 786.902344 327.921875 785.480469 C 329.929688 784.0625 331.878906 782.574219 333.78125 781.019531 C 335.679688 779.460938 337.523438 777.84375 339.3125 776.15625 C 341.101562 774.472656 342.824219 772.730469 344.492188 770.921875 C 346.15625 769.117188 347.757812 767.257812 349.292969 765.339844 C 350.828125 763.425781 352.296875 761.457031 353.695312 759.4375 C 358.113281 752.734375 361.722656 745.625 364.519531 738.101562 L 366.542969 733.144531 C 366.542969 731.425781 367.453125 729.503906 367.960938 727.785156 C 368.867188 724.402344 369.601562 720.980469 370.160156 717.523438 C 370.722656 714.066406 371.105469 710.589844 371.3125 707.089844 C 371.523438 703.59375 371.554688 700.097656 371.40625 696.597656 C 371.261719 693.097656 370.9375 689.613281 370.441406 686.144531 C 369.941406 682.675781 369.269531 679.246094 368.421875 675.84375 C 367.574219 672.445312 366.558594 669.097656 365.375 665.800781 C 364.1875 662.503906 362.839844 659.277344 361.328125 656.117188 C 359.816406 652.957031 358.148438 649.878906 356.324219 646.886719 C 350.527344 637.695312 344.21875 628.863281 337.402344 620.394531 Z M 337.402344 620.394531 " fill-opacity="1" fill-rule="nonzero"/><path fill="#000000" d="M 720.679688 613.414062 C 712.113281 614.238281 704.085938 616.765625 696.597656 621 L 685.570312 625.753906 C 673.425781 630.40625 661.285156 632.628906 653.394531 621.910156 C 651.503906 619.066406 650.253906 615.964844 649.648438 612.605469 C 648.246094 604.613281 647.503906 596.554688 647.421875 588.4375 C 647.421875 584.292969 647.421875 579.945312 647.421875 575.292969 C 647.421875 545.863281 646.410156 510.472656 632.550781 496.617188 C 630.765625 494.777344 628.710938 493.328125 626.378906 492.269531 C 625.101562 491.710938 623.789062 491.273438 622.429688 490.957031 L 620.914062 490.957031 C 617.417969 490.546875 614.046875 491.019531 610.796875 492.371094 C 598.855469 497.226562 588.433594 512.59375 579.328125 530.59375 L 574.976562 539.394531 C 573.359375 542.832031 571.839844 546.167969 570.324219 549.503906 C 568.804688 552.84375 567.488281 555.675781 566.175781 558.707031 C 557.269531 578.933594 550.289062 594.40625 542.195312 599.15625 C 527.21875 607.957031 514.167969 593.796875 502.734375 581.257812 C 497.519531 574.445312 491.144531 568.984375 483.609375 564.875 C 482.632812 564.503906 481.621094 564.304688 480.574219 564.269531 C 479.304688 564.238281 478.191406 564.640625 477.234375 565.484375 C 470.964844 570.539062 461.957031 593.695312 472.785156 692.292969 C 473.949219 703.191406 475.769531 713.976562 478.246094 724.652344 C 479.628906 730.292969 481.449219 735.785156 483.710938 741.136719 C 484.421875 742.652344 485.128906 744.167969 485.9375 745.683594 C 486.746094 747.203125 487.253906 748.71875 488.0625 750.234375 C 489.09375 752.148438 490.183594 754.03125 491.332031 755.875 C 492.480469 757.71875 493.6875 759.527344 494.949219 761.296875 C 496.210938 763.066406 497.53125 764.796875 498.902344 766.480469 C 500.273438 768.167969 501.695312 769.808594 503.171875 771.40625 C 504.648438 773.003906 506.171875 774.554688 507.742188 776.054688 C 509.316406 777.554688 510.933594 779.003906 512.597656 780.40625 C 514.261719 781.804688 515.96875 783.148438 517.71875 784.441406 C 519.46875 785.734375 521.253906 786.96875 523.082031 788.148438 C 524.910156 789.328125 526.769531 790.449219 528.667969 791.511719 C 530.566406 792.574219 532.496094 793.574219 534.453125 794.515625 C 536.414062 795.457031 538.402344 796.335938 540.417969 797.148438 C 542.433594 797.964844 544.472656 798.71875 546.539062 799.40625 C 548.601562 800.09375 550.683594 800.714844 552.785156 801.269531 C 554.886719 801.824219 557.007812 802.316406 559.140625 802.738281 C 561.273438 803.160156 563.417969 803.515625 565.570312 803.804688 C 567.726562 804.09375 569.890625 804.3125 572.058594 804.464844 C 574.230469 804.617188 576.402344 804.699219 578.574219 804.714844 C 580.75 804.730469 582.921875 804.675781 585.09375 804.554688 C 587.265625 804.433594 589.433594 804.246094 591.589844 803.988281 C 593.75 803.730469 595.898438 803.402344 598.039062 803.011719 C 600.175781 802.617188 602.300781 802.15625 604.410156 801.632812 C 606.523438 801.105469 608.613281 800.511719 610.6875 799.851562 C 612.757812 799.195312 614.808594 798.472656 616.835938 797.683594 C 618.863281 796.898438 620.863281 796.046875 622.835938 795.132812 C 624.808594 794.21875 626.75 793.246094 628.664062 792.210938 C 630.574219 791.175781 632.453125 790.082031 634.296875 788.925781 C 636.140625 787.773438 637.945312 786.5625 639.710938 785.296875 C 641.476562 784.027344 643.203125 782.707031 644.886719 781.332031 C 646.570312 779.953125 648.210938 778.527344 649.804688 777.046875 C 651.398438 775.570312 652.941406 774.042969 654.441406 772.464844 C 655.9375 770.890625 657.382812 769.269531 658.777344 767.601562 C 660.171875 765.933594 661.515625 764.222656 662.800781 762.472656 C 669.3125 753.621094 675.28125 744.417969 680.710938 734.863281 C 729.277344 648.40625 730.1875 623.628906 726.445312 616.550781 C 726.160156 616.042969 725.8125 615.589844 725.398438 615.179688 C 724.984375 614.773438 724.523438 614.429688 724.011719 614.152344 C 723.503906 613.875 722.964844 613.675781 722.398438 613.550781 C 721.832031 613.425781 721.257812 613.378906 720.679688 613.414062 Z M 720.679688 613.414062 " fill-opacity="1" fill-rule="nonzero"/><g fill="#000000" fill-opacity="1"><g transform="translate(693.742992, 29.250019)"><g><path d="M 6.4375 0.3125 C 5.289062 0.3125 4.390625 -0.0078125 3.734375 -0.65625 C 3.078125 -1.3125 2.75 -2.285156 2.75 -3.578125 L 2.75 -22.640625 L 5.140625 -22.640625 L 5.140625 -3.734375 C 5.140625 -3.054688 5.269531 -2.566406 5.53125 -2.265625 C 5.789062 -1.972656 6.191406 -1.828125 6.734375 -1.828125 C 7.066406 -1.828125 7.40625 -1.882812 7.75 -2 L 7.953125 -1.9375 L 8.234375 -0.0625 C 8.054688 0.0625 7.800781 0.15625 7.46875 0.21875 C 7.144531 0.28125 6.800781 0.3125 6.4375 0.3125 Z M 6.4375 0.3125 "/></g></g><g transform="translate(702.532054, 29.250019)"><g><path d="M 4.015625 -19.28125 C 3.503906 -19.28125 3.085938 -19.4375 2.765625 -19.75 C 2.453125 -20.070312 2.296875 -20.476562 2.296875 -20.96875 C 2.296875 -21.445312 2.453125 -21.84375 2.765625 -22.15625 C 3.085938 -22.476562 3.503906 -22.640625 4.015625 -22.640625 C 4.523438 -22.640625 4.9375 -22.476562 5.25 -22.15625 C 5.570312 -21.84375 5.734375 -21.445312 5.734375 -20.96875 C 5.734375 -20.476562 5.570312 -20.070312 5.25 -19.75 C 4.9375 -19.4375 4.523438 -19.28125 4.015625 -19.28125 Z M 2.8125 0 L 2.8125 -16.15625 L 5.203125 -16.15625 L 5.203125 0 Z M 2.8125 0 "/></g></g><g transform="translate(710.544749, 29.250019)"><g><path d="M 2.8125 0 L 2.8125 -16.15625 L 5.078125 -16.15625 L 5.078125 -13.625 L 5.390625 -13.546875 C 5.929688 -14.492188 6.617188 -15.21875 7.453125 -15.71875 C 8.285156 -16.21875 9.300781 -16.46875 10.5 -16.46875 C 12.445312 -16.46875 13.859375 -15.96875 14.734375 -14.96875 C 15.609375 -13.976562 16.046875 -12.457031 16.046875 -10.40625 L 16.046875 0 L 13.65625 0 L 13.65625 -10.34375 C 13.65625 -11.320312 13.53125 -12.101562 13.28125 -12.6875 C 13.03125 -13.28125 12.644531 -13.710938 12.125 -13.984375 C 11.601562 -14.253906 10.914062 -14.390625 10.0625 -14.390625 C 8.601562 -14.390625 7.425781 -13.90625 6.53125 -12.9375 C 5.644531 -11.976562 5.203125 -10.429688 5.203125 -8.296875 L 5.203125 0 Z M 2.8125 0 "/></g></g><g transform="translate(729.148264, 29.250019)"><g><path d="M 7.984375 0.3125 C 6.160156 0.3125 4.800781 -0.171875 3.90625 -1.140625 C 3.007812 -2.109375 2.5625 -3.523438 2.5625 -5.390625 L 2.5625 -16.15625 L 4.953125 -16.15625 L 4.953125 -5.453125 C 4.953125 -2.992188 6.101562 -1.765625 8.40625 -1.765625 C 9.875 -1.765625 11.03125 -2.242188 11.875 -3.203125 C 12.726562 -4.160156 13.15625 -5.710938 13.15625 -7.859375 L 13.15625 -16.15625 L 15.546875 -16.15625 L 15.546875 0 L 13.28125 0 L 13.28125 -2.53125 L 12.984375 -2.609375 C 12.421875 -1.617188 11.75 -0.882812 10.96875 -0.40625 C 10.195312 0.0703125 9.203125 0.3125 7.984375 0.3125 Z M 7.984375 0.3125 "/></g></g><g transform="translate(747.502755, 29.250019)"><g><path d="M 3.375 0 L 0.734375 0 L 5.734375 -8.375 L 0.984375 -16.15625 L 3.671875 -16.15625 L 7.40625 -9.953125 L 7.75 -9.953125 L 11.5 -16.15625 L 14.078125 -16.15625 L 9.453125 -8.375 L 14.328125 0 L 11.625 0 L 7.640625 -6.828125 L 7.3125 -6.828125 Z M 3.375 0 "/></g></g></g><g fill="#000000" fill-opacity="1"><g transform="translate(762.567207, 29.250019)"><g/></g></g></svg>