<svg xmlns="http://www.w3.org/2000/svg" xmlns:xlink="http://www.w3.org/1999/xlink" width="1080" zoomAndPan="magnify" viewBox="0 0 810 809.999993" height="1080" preserveAspectRatio="xMidYMid meet" version="1.0"><defs><g/></defs><path fill="#fb6222" d="M 810 405 C 810 411.628906 809.835938 418.253906 809.511719 424.871094 C 809.1875 431.492188 808.699219 438.101562 808.050781 444.695312 C 807.398438 451.292969 806.589844 457.871094 805.617188 464.425781 C 804.644531 470.980469 803.511719 477.511719 802.21875 484.011719 C 800.925781 490.511719 799.472656 496.976562 797.863281 503.40625 C 796.253906 509.835938 794.484375 516.222656 792.5625 522.566406 C 790.636719 528.90625 788.558594 535.199219 786.324219 541.441406 C 784.09375 547.679688 781.707031 553.863281 779.171875 559.988281 C 776.632812 566.109375 773.949219 572.167969 771.117188 578.160156 C 768.28125 584.152344 765.300781 590.070312 762.179688 595.914062 C 759.054688 601.761719 755.789062 607.527344 752.378906 613.210938 C 748.972656 618.898438 745.425781 624.496094 741.746094 630.003906 C 738.0625 635.515625 734.246094 640.933594 730.300781 646.257812 C 726.351562 651.582031 722.273438 656.804688 718.070312 661.929688 C 713.863281 667.054688 709.535156 672.070312 705.085938 676.980469 C 700.632812 681.890625 696.066406 686.691406 691.378906 691.378906 C 686.691406 696.066406 681.890625 700.632812 676.980469 705.085938 C 672.070312 709.535156 667.054688 713.863281 661.929688 718.070312 C 656.804688 722.273438 651.582031 726.351562 646.257812 730.300781 C 640.933594 734.246094 635.515625 738.0625 630.007812 741.746094 C 624.496094 745.425781 618.898438 748.972656 613.210938 752.378906 C 607.527344 755.789062 601.761719 759.054688 595.914062 762.179688 C 590.070312 765.300781 584.152344 768.28125 578.160156 771.117188 C 572.167969 773.949219 566.109375 776.632812 559.988281 779.171875 C 553.863281 781.707031 547.679688 784.09375 541.441406 786.324219 C 535.199219 788.558594 528.90625 790.636719 522.566406 792.5625 C 516.222656 794.484375 509.835938 796.253906 503.40625 797.863281 C 496.976562 799.472656 490.511719 800.925781 484.011719 802.21875 C 477.511719 803.511719 470.980469 804.644531 464.425781 805.617188 C 457.871094 806.589844 451.292969 807.398438 444.695312 808.050781 C 438.101562 808.699219 431.492188 809.1875 424.871094 809.511719 C 418.253906 809.835938 411.628906 810 405 810 C 398.371094 810 391.746094 809.835938 385.128906 809.511719 C 378.507812 809.1875 371.898438 808.699219 365.304688 808.050781 C 358.707031 807.398438 352.128906 806.589844 345.574219 805.617188 C 339.019531 804.644531 332.488281 803.511719 325.988281 802.21875 C 319.488281 800.925781 313.023438 799.472656 306.59375 797.863281 C 300.164062 796.253906 293.777344 794.484375 287.433594 792.5625 C 281.09375 790.636719 274.800781 788.558594 268.558594 786.324219 C 262.320312 784.09375 256.136719 781.707031 250.011719 779.171875 C 243.890625 776.632812 237.832031 773.949219 231.839844 771.117188 C 225.847656 768.28125 219.929688 765.300781 214.085938 762.179688 C 208.238281 759.054688 202.472656 755.789062 196.789062 752.378906 C 191.101562 748.972656 185.503906 745.425781 179.992188 741.746094 C 174.484375 738.0625 169.066406 734.246094 163.742188 730.300781 C 158.417969 726.351562 153.195312 722.273438 148.070312 718.070312 C 142.945312 713.863281 137.929688 709.535156 133.019531 705.085938 C 128.109375 700.632812 123.308594 696.066406 118.621094 691.378906 C 113.933594 686.691406 109.367188 681.890625 104.914062 676.980469 C 100.464844 672.070312 96.136719 667.054688 91.929688 661.929688 C 87.726562 656.804688 83.648438 651.582031 79.699219 646.257812 C 75.753906 640.933594 71.9375 635.515625 68.253906 630.007812 C 64.574219 624.496094 61.027344 618.898438 57.621094 613.210938 C 54.210938 607.527344 50.945312 601.761719 47.820312 595.914062 C 44.699219 590.070312 41.71875 584.152344 38.882812 578.160156 C 36.050781 572.167969 33.367188 566.109375 30.828125 559.988281 C 28.292969 553.863281 25.90625 547.679688 23.675781 541.441406 C 21.441406 535.199219 19.363281 528.90625 17.4375 522.566406 C 15.515625 516.222656 13.746094 509.835938 12.136719 503.40625 C 10.527344 496.976562 9.074219 490.511719 7.78125 484.011719 C 6.488281 477.511719 5.355469 470.980469 4.382812 464.425781 C 3.410156 457.871094 2.601562 451.292969 1.949219 444.695312 C 1.300781 438.101562 0.8125 431.492188 0.488281 424.871094 C 0.164062 418.253906 0 411.628906 0 405 C 0 398.371094 0.164062 391.746094 0.488281 385.128906 C 0.8125 378.507812 1.300781 371.898438 1.949219 365.304688 C 2.601562 358.707031 3.410156 352.128906 4.382812 345.574219 C 5.355469 339.019531 6.488281 332.488281 7.78125 325.988281 C 9.074219 319.488281 10.527344 313.023438 12.136719 306.59375 C 13.746094 300.164062 15.515625 293.777344 17.4375 287.433594 C 19.363281 281.09375 21.441406 274.800781 23.675781 268.558594 C 25.90625 262.320312 28.292969 256.136719 30.828125 250.011719 C 33.367188 243.890625 36.050781 237.832031 38.882812 231.839844 C 41.71875 225.847656 44.699219 219.929688 47.820312 214.085938 C 50.945312 208.238281 54.210938 202.472656 57.621094 196.789062 C 61.027344 191.101562 64.574219 185.503906 68.253906 179.992188 C 71.9375 174.484375 75.753906 169.066406 79.699219 163.742188 C 83.648438 158.417969 87.726562 153.195312 91.929688 148.070312 C 96.136719 142.945312 100.464844 137.929688 104.914062 133.019531 C 109.367188 128.109375 113.933594 123.308594 118.621094 118.621094 C 123.308594 113.933594 128.109375 109.367188 133.019531 104.914062 C 137.929688 100.464844 142.945312 96.136719 148.070312 91.929688 C 153.195312 87.726562 158.417969 83.648438 163.742188 79.699219 C 169.066406 75.753906 174.484375 71.9375 179.992188 68.253906 C 185.503906 64.574219 191.101562 61.027344 196.789062 57.621094 C 202.472656 54.210938 208.238281 50.945312 214.085938 47.820312 C 219.929688 44.699219 225.847656 41.71875 231.839844 38.882812 C 237.832031 36.050781 243.890625 33.367188 250.011719 30.828125 C 256.136719 28.292969 262.320312 25.90625 268.558594 23.675781 C 274.800781 21.441406 281.09375 19.363281 287.433594 17.4375 C 293.777344 15.515625 300.164062 13.746094 306.59375 12.136719 C 313.023438 10.527344 319.488281 9.074219 325.988281 7.78125 C 332.488281 6.488281 339.019531 5.355469 345.574219 4.382812 C 352.128906 3.410156 358.707031 2.601562 365.304688 1.949219 C 371.898438 1.300781 378.507812 0.8125 385.128906 0.488281 C 391.746094 0.164062 398.371094 0 405 0 C 411.628906 0 418.253906 0.164062 424.871094 0.488281 C 431.492188 0.8125 438.101562 1.300781 444.695312 1.949219 C 451.292969 2.601562 457.871094 3.410156 464.425781 4.382812 C 470.980469 5.355469 477.511719 6.488281 484.011719 7.78125 C 490.511719 9.074219 496.976562 10.527344 503.40625 12.136719 C 509.835938 13.746094 516.222656 15.515625 522.566406 17.4375 C 528.90625 19.363281 535.199219 21.441406 541.441406 23.675781 C 547.679688 25.90625 553.863281 28.292969 559.988281 30.828125 C 566.109375 33.367188 572.167969 36.050781 578.160156 38.882812 C 584.152344 41.71875 590.070312 44.699219 595.914062 47.820312 C 601.761719 50.945312 607.527344 54.210938 613.210938 57.621094 C 618.898438 61.027344 624.496094 64.574219 630.003906 68.253906 C 635.515625 71.9375 640.933594 75.753906 646.257812 79.699219 C 651.582031 83.648438 656.804688 87.726562 661.929688 91.929688 C 667.054688 96.136719 672.070312 100.464844 676.980469 104.914062 C 681.890625 109.367188 686.691406 113.933594 691.378906 118.621094 C 696.066406 123.308594 700.632812 128.109375 705.085938 133.019531 C 709.535156 137.929688 713.863281 142.945312 718.070312 148.070312 C 722.273438 153.195312 726.351562 158.417969 730.300781 163.742188 C 734.246094 169.066406 738.0625 174.484375 741.746094 179.992188 C 745.425781 185.503906 748.972656 191.101562 752.378906 196.789062 C 755.789062 202.472656 759.054688 208.238281 762.179688 214.085938 C 765.300781 219.929688 768.28125 225.847656 771.117188 231.839844 C 773.949219 237.832031 776.632812 243.890625 779.171875 250.011719 C 781.707031 256.136719 784.09375 262.320312 786.324219 268.558594 C 788.558594 274.800781 790.636719 281.09375 792.5625 287.433594 C 794.484375 293.777344 796.253906 300.164062 797.863281 306.59375 C 799.472656 313.023438 800.925781 319.488281 802.21875 325.988281 C 803.511719 332.488281 804.644531 339.019531 805.617188 345.574219 C 806.589844 352.128906 807.398438 358.707031 808.050781 365.304688 C 808.699219 371.898438 809.1875 378.507812 809.511719 385.128906 C 809.835938 391.746094 810 398.371094 810 405 Z M 810 405 " fill-opacity="1" fill-rule="nonzero"/><path fill="#ffffff" d="M 636.210938 547.496094 L 173.789062 547.496094 C 158.292969 547.496094 145.835938 535.039062 145.835938 519.542969 L 145.835938 470.625 L 664.46875 470.625 L 664.46875 519.542969 C 664.46875 535.039062 651.707031 547.496094 636.210938 547.496094 Z M 392.238281 401.65625 C 382.214844 401.65625 372.792969 399.835938 363.679688 396.492188 C 356.085938 393.757812 351.222656 391.328125 347.878906 389.199219 C 343.929688 393.453125 337.550781 401.65625 336.941406 412.898438 C 336.640625 415.9375 333.90625 418.367188 330.867188 418.367188 C 330.5625 418.367188 330.5625 418.367188 330.257812 418.367188 C 326.917969 418.367188 324.484375 415.332031 324.789062 411.988281 C 326.003906 395.886719 335.121094 384.949219 340.285156 379.78125 C 335.425781 366.71875 325.09375 327.21875 362.160156 290.761719 C 385.25 268.886719 408.039062 263.113281 437.8125 257.339844 C 448.144531 255.214844 457.867188 250.65625 463.335938 245.1875 C 464.855469 243.667969 466.675781 243.0625 468.804688 243.667969 C 470.625 243.972656 472.449219 245.1875 473.058594 247.011719 C 486.425781 276.480469 488.855469 304.128906 480.957031 334.207031 C 470.625 373.402344 433.253906 401.65625 392.238281 401.65625 Z M 597.320312 437.507812 L 555.394531 437.507812 C 552.050781 437.507812 549.316406 434.773438 549.316406 431.433594 C 549.316406 428.089844 552.050781 425.355469 555.394531 425.355469 L 597.320312 425.355469 C 600.664062 425.355469 603.398438 428.089844 603.398438 431.433594 C 603.398438 434.773438 600.664062 437.507812 597.320312 437.507812 Z M 597.320312 411.378906 L 555.394531 411.378906 C 552.050781 411.378906 549.316406 408.644531 549.316406 405.304688 C 549.316406 401.960938 552.050781 399.226562 555.394531 399.226562 L 597.320312 399.226562 C 600.664062 399.226562 603.398438 401.960938 603.398438 405.304688 C 603.398438 408.644531 600.664062 411.378906 597.320312 411.378906 Z M 254.910156 262.503906 L 212.980469 262.503906 C 209.640625 262.503906 206.90625 259.769531 206.90625 256.429688 C 206.90625 253.085938 209.640625 250.351562 212.980469 250.351562 L 254.910156 250.351562 C 258.253906 250.351562 260.988281 253.085938 260.988281 256.429688 C 260.988281 259.769531 258.253906 262.503906 254.910156 262.503906 Z M 254.910156 236.375 L 212.980469 236.375 C 209.640625 236.375 206.90625 233.640625 206.90625 230.300781 C 206.90625 226.957031 209.640625 224.222656 212.980469 224.222656 L 254.910156 224.222656 C 258.253906 224.222656 260.988281 226.957031 260.988281 230.300781 C 260.988281 233.640625 258.253906 236.375 254.910156 236.375 Z M 350.917969 372.792969 C 378.871094 357.300781 427.484375 316.28125 438.117188 292.585938 C 439.332031 289.546875 442.976562 288.027344 446.015625 289.546875 C 449.054688 290.761719 450.574219 294.40625 449.054688 297.445312 C 437.507812 323.574219 390.113281 363.984375 359.730469 381.910156 C 361.855469 382.820312 364.589844 384.035156 367.933594 385.25 C 375.527344 387.984375 383.730469 389.503906 392.238281 389.503906 C 427.179688 389.503906 460.296875 364.289062 469.105469 331.171875 C 475.792969 305.953125 474.574219 283.46875 465.15625 259.164062 C 458.167969 263.722656 449.359375 267.367188 440.242188 269.191406 C 411.683594 274.660156 391.328125 279.824219 370.667969 299.574219 C 340.589844 329.042969 346.664062 360.335938 350.917969 372.792969 Z M 437.8125 528.050781 L 353.347656 528.050781 C 345.753906 528.050781 339.375 521.667969 339.375 514.074219 L 339.375 504.65625 C 339.375 497.058594 345.753906 490.984375 353.347656 490.984375 L 437.8125 490.984375 C 445.410156 490.984375 451.789062 497.058594 451.789062 504.65625 L 451.789062 514.074219 C 451.789062 521.667969 445.410156 528.050781 437.8125 528.050781 Z M 353.347656 503.136719 C 352.4375 503.136719 351.527344 503.742188 351.527344 504.65625 L 351.527344 514.074219 C 351.527344 514.984375 352.4375 515.894531 353.347656 515.894531 L 437.8125 515.894531 C 438.726562 515.894531 439.636719 514.984375 439.636719 514.074219 L 439.636719 504.65625 C 439.636719 503.742188 438.726562 503.136719 437.8125 503.136719 Z M 145.835938 458.472656 L 145.835938 184.117188 C 145.835938 168.625 158.292969 156.167969 173.789062 156.167969 L 636.210938 156.167969 C 651.707031 156.167969 664.46875 168.625 664.46875 184.117188 L 664.46875 458.472656 L 630.136719 458.472656 L 630.136719 212.980469 C 630.136719 201.132812 620.414062 191.410156 608.5625 191.410156 L 201.742188 191.410156 C 189.890625 191.410156 180.167969 201.132812 180.167969 212.980469 L 180.167969 458.472656 Z M 617.980469 458.472656 L 192.320312 458.472656 L 192.320312 212.980469 C 192.320312 207.816406 196.574219 203.5625 201.742188 203.5625 L 608.5625 203.5625 C 613.726562 203.5625 617.980469 207.816406 617.980469 212.980469 Z M 617.980469 458.472656 " fill-opacity="1" fill-rule="evenodd"/><path fill="#ffffff" d="M 333.601562 615.855469 C 332.992188 615.855469 332.082031 615.855469 331.171875 615.550781 C 328.132812 614.03125 326.917969 610.386719 328.132812 607.347656 L 359.425781 538.988281 C 360.945312 535.949219 364.589844 534.429688 367.628906 535.949219 C 370.667969 537.46875 371.882812 540.808594 370.667969 544.152344 L 339.375 612.511719 C 338.160156 614.640625 336.03125 615.855469 333.601562 615.855469 Z M 476.398438 615.855469 C 474.273438 615.855469 471.839844 614.640625 470.929688 612.511719 L 439.636719 544.152344 C 438.117188 540.808594 439.636719 537.46875 442.675781 535.949219 C 445.710938 534.429688 449.359375 535.949219 450.574219 538.988281 L 481.867188 607.347656 C 483.386719 610.386719 482.171875 614.03125 479.132812 615.550781 C 478.222656 615.855469 477.3125 615.855469 476.398438 615.855469 Z M 476.398438 615.855469 " fill-opacity="1" fill-rule="evenodd"/><path fill="#ffffff" d="M 518.933594 654.136719 L 291.066406 654.136719 C 283.46875 654.136719 277.394531 647.757812 277.394531 640.160156 L 277.394531 617.679688 C 277.394531 610.082031 283.46875 603.703125 291.066406 603.703125 L 518.933594 603.703125 C 526.53125 603.703125 532.910156 610.082031 532.910156 617.679688 L 532.910156 640.160156 C 532.910156 647.757812 526.53125 654.136719 518.933594 654.136719 Z M 518.933594 654.136719 " fill-opacity="1" fill-rule="evenodd"/><g fill="#000000" fill-opacity="1"><g transform="translate(595.440862, 794.908804)"><g><path d="M 2.8125 0 L 2.8125 -16.15625 L 5.078125 -16.15625 L 5.078125 -13.765625 L 5.390625 -13.71875 C 5.941406 -14.625 6.601562 -15.304688 7.375 -15.765625 C 8.15625 -16.234375 9.085938 -16.46875 10.171875 -16.46875 C 11.421875 -16.46875 12.382812 -16.226562 13.0625 -15.75 C 13.75 -15.28125 14.28125 -14.519531 14.65625 -13.46875 L 14.96875 -13.46875 C 15.53125 -14.445312 16.21875 -15.191406 17.03125 -15.703125 C 17.84375 -16.210938 18.847656 -16.46875 20.046875 -16.46875 C 21.703125 -16.46875 22.9375 -16.015625 23.75 -15.109375 C 24.5625 -14.210938 24.96875 -12.847656 24.96875 -11.015625 L 24.96875 0 L 22.59375 0 L 22.59375 -10.953125 C 22.59375 -12.128906 22.34375 -12.992188 21.84375 -13.546875 C 21.351562 -14.109375 20.5625 -14.390625 19.46875 -14.390625 C 18.175781 -14.390625 17.125 -13.921875 16.3125 -12.984375 C 15.5 -12.046875 15.09375 -10.5 15.09375 -8.34375 L 15.09375 0 L 12.703125 0 L 12.703125 -10.953125 C 12.703125 -12.128906 12.453125 -12.992188 11.953125 -13.546875 C 11.460938 -14.109375 10.671875 -14.390625 9.578125 -14.390625 C 8.285156 -14.390625 7.234375 -13.929688 6.421875 -13.015625 C 5.609375 -12.109375 5.203125 -10.632812 5.203125 -8.59375 L 5.203125 0 Z M 2.8125 0 "/></g></g><g transform="translate(622.979923, 794.908804)"><g><path d="M 9.265625 0.3125 C 7.742188 0.3125 6.421875 -0.0078125 5.296875 -0.65625 C 4.171875 -1.300781 3.300781 -2.25 2.6875 -3.5 C 2.070312 -4.757812 1.765625 -6.285156 1.765625 -8.078125 C 1.765625 -9.859375 2.070312 -11.378906 2.6875 -12.640625 C 3.300781 -13.898438 4.171875 -14.851562 5.296875 -15.5 C 6.421875 -16.144531 7.742188 -16.46875 9.265625 -16.46875 C 10.796875 -16.46875 12.125 -16.144531 13.25 -15.5 C 14.375 -14.851562 15.238281 -13.898438 15.84375 -12.640625 C 16.457031 -11.378906 16.765625 -9.859375 16.765625 -8.078125 C 16.765625 -6.285156 16.457031 -4.757812 15.84375 -3.5 C 15.238281 -2.25 14.375 -1.300781 13.25 -0.65625 C 12.125 -0.0078125 10.796875 0.3125 9.265625 0.3125 Z M 9.265625 -1.828125 C 10.878906 -1.828125 12.113281 -2.332031 12.96875 -3.34375 C 13.820312 -4.363281 14.25 -5.941406 14.25 -8.078125 C 14.25 -10.210938 13.820312 -11.785156 12.96875 -12.796875 C 12.113281 -13.816406 10.878906 -14.328125 9.265625 -14.328125 C 7.660156 -14.328125 6.425781 -13.816406 5.5625 -12.796875 C 4.707031 -11.773438 4.28125 -10.203125 4.28125 -8.078125 C 4.28125 -5.941406 4.707031 -4.363281 5.5625 -3.34375 C 6.425781 -2.332031 7.660156 -1.828125 9.265625 -1.828125 Z M 9.265625 -1.828125 "/></g></g><g transform="translate(641.524844, 794.908804)"><g><path d="M 2.8125 0 L 2.8125 -16.15625 L 5.078125 -16.15625 L 5.078125 -13.625 L 5.390625 -13.546875 C 5.929688 -14.492188 6.617188 -15.21875 7.453125 -15.71875 C 8.285156 -16.21875 9.300781 -16.46875 10.5 -16.46875 C 12.445312 -16.46875 13.859375 -15.96875 14.734375 -14.96875 C 15.609375 -13.976562 16.046875 -12.457031 16.046875 -10.40625 L 16.046875 0 L 13.65625 0 L 13.65625 -10.34375 C 13.65625 -11.320312 13.53125 -12.101562 13.28125 -12.6875 C 13.03125 -13.28125 12.644531 -13.710938 12.125 -13.984375 C 11.601562 -14.253906 10.914062 -14.390625 10.0625 -14.390625 C 8.601562 -14.390625 7.425781 -13.90625 6.53125 -12.9375 C 5.644531 -11.976562 5.203125 -10.429688 5.203125 -8.296875 L 5.203125 0 Z M 2.8125 0 "/></g></g><g transform="translate(660.128358, 794.908804)"><g><path d="M 8.328125 6.859375 C 5.773438 6.859375 3.910156 6.429688 2.734375 5.578125 C 1.566406 4.734375 0.984375 3.609375 0.984375 2.203125 C 0.984375 1.285156 1.253906 0.554688 1.796875 0.015625 C 2.347656 -0.515625 3.144531 -0.894531 4.1875 -1.125 L 4.1875 -1.4375 C 3.6875 -1.71875 3.3125 -2.046875 3.0625 -2.421875 C 2.820312 -2.804688 2.703125 -3.265625 2.703125 -3.796875 C 2.703125 -4.421875 2.894531 -4.925781 3.28125 -5.3125 C 3.675781 -5.707031 4.265625 -6.007812 5.046875 -6.21875 L 5.046875 -6.515625 C 3.296875 -7.441406 2.421875 -8.953125 2.421875 -11.046875 C 2.421875 -12.097656 2.660156 -13.035156 3.140625 -13.859375 C 3.617188 -14.679688 4.300781 -15.320312 5.1875 -15.78125 C 6.070312 -16.238281 7.109375 -16.46875 8.296875 -16.46875 C 9.648438 -16.46875 10.78125 -16.171875 11.6875 -15.578125 C 12.03125 -15.953125 12.285156 -16.359375 12.453125 -16.796875 C 12.628906 -17.234375 12.738281 -17.722656 12.78125 -18.265625 L 13.09375 -18.453125 L 15.0625 -17.984375 C 14.957031 -17.171875 14.707031 -16.476562 14.3125 -15.90625 C 13.914062 -15.34375 13.359375 -14.875 12.640625 -14.5 L 12.640625 -14.1875 C 13.160156 -13.78125 13.546875 -13.300781 13.796875 -12.75 C 14.046875 -12.195312 14.171875 -11.554688 14.171875 -10.828125 C 14.171875 -9.804688 13.925781 -8.890625 13.4375 -8.078125 C 12.945312 -7.273438 12.253906 -6.640625 11.359375 -6.171875 C 10.472656 -5.710938 9.453125 -5.484375 8.296875 -5.484375 C 8.160156 -5.484375 7.914062 -5.492188 7.5625 -5.515625 C 7.164062 -5.523438 6.875 -5.53125 6.6875 -5.53125 C 6.1875 -5.53125 5.785156 -5.398438 5.484375 -5.140625 C 5.179688 -4.878906 5.03125 -4.539062 5.03125 -4.125 C 5.03125 -3.625 5.191406 -3.253906 5.515625 -3.015625 C 5.835938 -2.773438 6.378906 -2.640625 7.140625 -2.609375 L 10.953125 -2.46875 C 12.609375 -2.414062 13.832031 -2.035156 14.625 -1.328125 C 15.425781 -0.617188 15.828125 0.382812 15.828125 1.6875 C 15.828125 2.65625 15.566406 3.523438 15.046875 4.296875 C 14.523438 5.078125 13.703125 5.695312 12.578125 6.15625 C 11.460938 6.625 10.046875 6.859375 8.328125 6.859375 Z M 8.296875 -7.53125 C 9.429688 -7.53125 10.3125 -7.828125 10.9375 -8.421875 C 11.5625 -9.015625 11.875 -9.847656 11.875 -10.921875 C 11.875 -12.035156 11.5625 -12.894531 10.9375 -13.5 C 10.320312 -14.113281 9.441406 -14.421875 8.296875 -14.421875 C 7.140625 -14.421875 6.257812 -14.117188 5.65625 -13.515625 C 5.050781 -12.910156 4.75 -12.046875 4.75 -10.921875 C 4.75 -9.835938 5.050781 -9 5.65625 -8.40625 C 6.257812 -7.820312 7.140625 -7.53125 8.296875 -7.53125 Z M 8.328125 4.8125 C 9.515625 4.8125 10.484375 4.675781 11.234375 4.40625 C 11.992188 4.144531 12.539062 3.796875 12.875 3.359375 C 13.207031 2.921875 13.375 2.4375 13.375 1.90625 C 13.375 1.425781 13.28125 1.039062 13.09375 0.75 C 12.914062 0.457031 12.625 0.238281 12.21875 0.09375 C 11.820312 -0.0507812 11.28125 -0.144531 10.59375 -0.1875 L 6.96875 -0.359375 L 6.453125 -0.359375 C 4.429688 -0.335938 3.421875 0.445312 3.421875 2 C 3.421875 3.875 5.054688 4.8125 8.328125 4.8125 Z M 8.328125 4.8125 "/></g></g><g transform="translate(676.681092, 794.908804)"><g><path d="M 9.265625 0.3125 C 7.742188 0.3125 6.421875 -0.0078125 5.296875 -0.65625 C 4.171875 -1.300781 3.300781 -2.25 2.6875 -3.5 C 2.070312 -4.757812 1.765625 -6.285156 1.765625 -8.078125 C 1.765625 -9.859375 2.070312 -11.378906 2.6875 -12.640625 C 3.300781 -13.898438 4.171875 -14.851562 5.296875 -15.5 C 6.421875 -16.144531 7.742188 -16.46875 9.265625 -16.46875 C 10.796875 -16.46875 12.125 -16.144531 13.25 -15.5 C 14.375 -14.851562 15.238281 -13.898438 15.84375 -12.640625 C 16.457031 -11.378906 16.765625 -9.859375 16.765625 -8.078125 C 16.765625 -6.285156 16.457031 -4.757812 15.84375 -3.5 C 15.238281 -2.25 14.375 -1.300781 13.25 -0.65625 C 12.125 -0.0078125 10.796875 0.3125 9.265625 0.3125 Z M 9.265625 -1.828125 C 10.878906 -1.828125 12.113281 -2.332031 12.96875 -3.34375 C 13.820312 -4.363281 14.25 -5.941406 14.25 -8.078125 C 14.25 -10.210938 13.820312 -11.785156 12.96875 -12.796875 C 12.113281 -13.816406 10.878906 -14.328125 9.265625 -14.328125 C 7.660156 -14.328125 6.425781 -13.816406 5.5625 -12.796875 C 4.707031 -11.773438 4.28125 -10.203125 4.28125 -8.078125 C 4.28125 -5.941406 4.707031 -4.363281 5.5625 -3.34375 C 6.425781 -2.332031 7.660156 -1.828125 9.265625 -1.828125 Z M 9.265625 -1.828125 "/></g></g><g transform="translate(695.226013, 794.908804)"><g><path d="M 8.375 0.3125 C 7.082031 0.3125 5.9375 0.00390625 4.9375 -0.609375 C 3.945312 -1.234375 3.171875 -2.171875 2.609375 -3.421875 C 2.046875 -4.671875 1.765625 -6.222656 1.765625 -8.078125 C 1.765625 -9.921875 2.054688 -11.46875 2.640625 -12.71875 C 3.234375 -13.976562 4.046875 -14.914062 5.078125 -15.53125 C 6.109375 -16.15625 7.300781 -16.46875 8.65625 -16.46875 C 9.726562 -16.46875 10.691406 -16.265625 11.546875 -15.859375 C 12.410156 -15.453125 13.148438 -14.785156 13.765625 -13.859375 L 14.078125 -13.921875 L 14.078125 -22.640625 L 16.46875 -22.640625 L 16.46875 0 L 14.078125 0 L 14.078125 -2.359375 L 13.765625 -2.421875 C 13.242188 -1.617188 12.53125 -0.960938 11.625 -0.453125 C 10.71875 0.0546875 9.632812 0.3125 8.375 0.3125 Z M 9.125 -1.828125 C 10.625 -1.828125 11.820312 -2.34375 12.71875 -3.375 C 13.625 -4.40625 14.078125 -5.972656 14.078125 -8.078125 C 14.078125 -10.179688 13.625 -11.75 12.71875 -12.78125 C 11.820312 -13.8125 10.625 -14.328125 9.125 -14.328125 C 7.570312 -14.328125 6.375 -13.820312 5.53125 -12.8125 C 4.695312 -11.8125 4.28125 -10.234375 4.28125 -8.078125 C 4.28125 -3.910156 5.894531 -1.828125 9.125 -1.828125 Z M 9.125 -1.828125 "/></g></g><g transform="translate(714.518004, 794.908804)"><g><path d="M 10.734375 0.3125 C 9.535156 0.3125 8.492188 0.0820312 7.609375 -0.375 C 6.722656 -0.84375 6.023438 -1.460938 5.515625 -2.234375 L 5.203125 -2.171875 L 5.203125 0 L 2.8125 0 L 2.8125 -22.640625 L 5.203125 -22.640625 L 5.203125 -13.734375 L 5.515625 -13.6875 C 6.742188 -15.539062 8.53125 -16.46875 10.875 -16.46875 C 12.195312 -16.46875 13.351562 -16.160156 14.34375 -15.546875 C 15.34375 -14.929688 16.117188 -13.992188 16.671875 -12.734375 C 17.222656 -11.484375 17.5 -9.929688 17.5 -8.078125 C 17.5 -6.234375 17.207031 -4.679688 16.625 -3.421875 C 16.050781 -2.171875 15.253906 -1.234375 14.234375 -0.609375 C 13.222656 0.00390625 12.054688 0.3125 10.734375 0.3125 Z M 10.171875 -1.828125 C 13.390625 -1.828125 15 -3.910156 15 -8.078125 C 15 -10.234375 14.578125 -11.8125 13.734375 -12.8125 C 12.898438 -13.820312 11.710938 -14.328125 10.171875 -14.328125 C 8.648438 -14.328125 7.441406 -13.8125 6.546875 -12.78125 C 5.648438 -11.75 5.203125 -10.179688 5.203125 -8.078125 C 5.203125 -5.972656 5.648438 -4.40625 6.546875 -3.375 C 7.441406 -2.34375 8.648438 -1.828125 10.171875 -1.828125 Z M 10.171875 -1.828125 "/></g></g></g><g fill="#000000" fill-opacity="1"><g transform="translate(733.80414, 794.908804)"><g/></g></g></svg>