<svg xmlns="http://www.w3.org/2000/svg" xmlns:xlink="http://www.w3.org/1999/xlink" width="1080" zoomAndPan="magnify" viewBox="0 0 810 809.999993" height="1080" preserveAspectRatio="xMidYMid meet" version="1.0"><defs><g/><clipPath id="c134779393"><path d="M 2 456 L 335 456 L 335 617.441406 L 2 617.441406 Z M 2 456 " clip-rule="nonzero"/></clipPath></defs><g clip-path="url(#c134779393)"><path fill="#00618a" d="M 2.945312 580.699219 L 29.433594 580.699219 L 29.433594 476.214844 L 70.445312 567.332031 C 75.28125 578.316406 81.910156 582.261719 94.898438 582.261719 C 107.886719 582.261719 114.253906 578.359375 119.101562 567.332031 L 160.117188 476.214844 L 160.117188 580.738281 L 186.609375 580.738281 L 186.609375 476.386719 C 186.609375 466.207031 182.527344 461.28125 174.125 458.742188 C 154.003906 452.464844 140.5 457.894531 134.390625 471.46875 L 94.144531 561.394531 L 55.164062 471.429688 C 49.308594 457.855469 35.554688 452.425781 15.429688 458.703125 C 7.019531 461.246094 2.945312 466.171875 2.945312 476.347656 Z M 208.628906 495.625 L 235.113281 495.625 L 235.113281 553.214844 C 234.863281 556.34375 236.117188 563.6875 250.628906 563.910156 C 258.035156 564.03125 307.773438 563.910156 308.234375 563.910156 L 308.234375 495.339844 L 334.777344 495.339844 C 334.894531 495.339844 334.75 588.839844 334.753906 589.238281 C 334.898438 612.296875 306.117188 617.308594 292.851562 617.695312 L 209.207031 617.695312 L 209.207031 599.886719 L 293 599.882812 C 310.050781 598.078125 308.039062 589.617188 308.039062 586.761719 L 308.039062 579.820312 L 251.734375 579.820312 C 225.539062 579.585938 208.859375 568.15625 208.652344 555.015625 C 208.632812 553.835938 209.21875 496.191406 208.636719 495.621094 Z M 208.628906 495.625 " fill-opacity="1" fill-rule="nonzero"/></g><path fill="#e48e00" d="M 355.199219 580.699219 L 431.359375 580.699219 C 440.273438 580.699219 448.9375 578.835938 455.824219 575.605469 C 467.289062 570.347656 472.890625 563.222656 472.890625 553.890625 L 472.890625 534.546875 C 472.890625 526.910156 466.523438 519.785156 454.042969 515.035156 C 447.421875 512.484375 439.269531 511.132812 431.375 511.132812 L 399.273438 511.132812 C 388.578125 511.132812 383.484375 507.90625 382.210938 500.785156 C 381.957031 499.9375 381.957031 499.214844 381.957031 498.40625 L 381.957031 486.363281 C 381.957031 485.683594 381.957031 485 382.210938 484.152344 C 383.484375 478.722656 386.285156 477.195312 395.710938 476.308594 C 396.476562 476.308594 397.492188 476.136719 398.261719 476.136719 L 473.914062 476.136719 L 473.914062 458.492188 L 399.535156 458.492188 C 388.835938 458.492188 383.234375 459.171875 378.136719 460.699219 C 362.320312 465.621094 355.441406 473.46875 355.441406 487.042969 L 355.441406 502.480469 C 355.441406 514.359375 368.949219 524.539062 391.609375 526.914062 C 394.164062 527.082031 396.707031 527.25 399.25 527.25 L 426.761719 527.25 C 427.785156 527.25 428.804688 527.25 429.566406 527.425781 C 437.96875 528.101562 441.542969 529.628906 444.085938 532.679688 C 445.65625 534.25 446.128906 535.742188 446.128906 537.386719 L 446.128906 552.828125 C 446.128906 554.695312 444.855469 557.074219 442.308594 559.105469 C 440.015625 561.144531 436.195312 562.5 431.097656 562.839844 C 430.078125 562.839844 429.316406 563.007812 428.296875 563.007812 L 355.191406 563.007812 L 355.191406 580.65625 Z M 638.144531 549.988281 C 638.144531 568.144531 651.644531 578.324219 678.898438 580.359375 C 681.441406 580.558594 683.988281 580.671875 686.539062 580.699219 L 755.574219 580.699219 L 755.574219 563.054688 L 686.03125 563.054688 C 670.492188 563.054688 664.632812 559.148438 664.632812 549.816406 L 664.632812 458.527344 L 638.140625 458.527344 L 638.140625 549.980469 Z M 489.789062 550.90625 L 489.789062 488.003906 C 489.789062 472.019531 501.019531 462.328125 523.226562 459.265625 C 525.597656 458.929688 527.980469 458.757812 530.375 458.757812 L 580.660156 458.757812 C 583.140625 458.757812 585.609375 458.929688 588.066406 459.265625 C 610.273438 462.328125 621.5 472.015625 621.5 488.003906 L 621.5 550.90625 C 621.5 563.871094 616.730469 570.8125 605.738281 575.335938 L 631.832031 598.875 L 601.074219 598.875 L 579.960938 579.832031 L 558.707031 581.175781 L 530.375 581.175781 C 525.527344 581.175781 520.421875 580.496094 514.804688 578.964844 C 497.921875 574.375 489.792969 565.53125 489.792969 550.90625 Z M 518.382812 549.339844 C 518.382812 550.1875 518.640625 551.035156 518.894531 552.0625 C 520.464844 559.371094 527.316406 563.453125 537.742188 563.453125 L 561.808594 563.453125 L 539.703125 543.511719 L 570.464844 543.511719 L 589.703125 560.902344 C 593.253906 559.011719 595.589844 556.117188 596.375 552.402344 C 596.632812 551.554688 596.632812 550.703125 596.632812 549.851562 L 596.632812 489.535156 C 596.632812 488.859375 596.632812 487.96875 596.375 487.15625 C 594.804688 480.355469 587.949219 476.445312 577.742188 476.445312 L 537.8125 476.445312 C 526.03125 476.445312 518.414062 481.546875 518.414062 489.535156 L 518.414062 549.386719 Z M 518.382812 549.339844 " fill-opacity="1" fill-rule="nonzero"/><path fill="#00618a" d="M 778.863281 429.257812 C 762.582031 428.816406 750.140625 430.328125 739.507812 434.808594 C 736.484375 436.082031 731.664062 436.113281 731.171875 439.898438 C 732.832031 441.636719 733.09375 444.234375 734.410156 446.371094 C 736.949219 450.480469 741.242188 455.984375 745.0625 458.863281 C 749.238281 462.011719 753.542969 465.386719 758.03125 468.121094 C 766 472.976562 774.898438 475.75 782.570312 480.613281 C 787.09375 483.476562 791.585938 487.085938 796 490.324219 C 798.175781 491.925781 799.648438 494.414062 802.476562 495.414062 L 802.476562 494.949219 C 800.984375 493.054688 800.605469 490.449219 799.238281 488.476562 L 793.21875 482.464844 C 787.328125 474.617188 779.863281 467.804688 771.917969 462.101562 C 765.585938 457.558594 751.40625 451.425781 748.765625 444.058594 L 748.300781 443.59375 C 752.792969 443.085938 758.050781 441.464844 762.199219 440.359375 C 769.164062 438.496094 775.386719 438.972656 782.578125 437.121094 L 792.304688 434.34375 L 792.304688 432.492188 C 788.667969 428.765625 786.078125 423.835938 782.113281 420.464844 C 771.75 411.636719 760.429688 402.832031 748.78125 395.476562 C 742.316406 391.394531 734.332031 388.75 727.480469 385.296875 C 725.175781 384.132812 721.128906 383.53125 719.609375 381.59375 C 716.011719 377.011719 714.050781 371.195312 711.277344 365.898438 C 705.464844 354.71875 699.757812 342.503906 694.605469 330.738281 C 691.089844 322.714844 688.792969 314.804688 684.421875 307.605469 C 663.394531 273.066406 640.757812 252.21875 605.707031 231.734375 C 598.246094 227.378906 589.265625 225.652344 579.773438 223.40625 L 564.492188 222.480469 C 561.382812 221.1875 558.144531 217.378906 555.226562 215.535156 C 543.609375 208.199219 513.820312 192.261719 505.21875 213.183594 C 499.789062 226.414062 513.335938 239.324219 518.183594 246.035156 C 521.585938 250.742188 525.941406 256.011719 528.367188 261.300781 C 529.964844 264.777344 530.246094 268.265625 531.613281 271.945312 C 534.976562 280.96875 537.90625 290.867188 542.261719 299.242188 C 544.457031 303.476562 546.886719 307.941406 549.667969 311.730469 C 551.375 314.058594 554.300781 315.082031 554.761719 318.675781 C 551.902344 322.675781 551.738281 328.875 550.128906 333.945312 C 542.890625 356.742188 545.621094 385.078125 556.148438 401.957031 C 559.378906 407.132812 566.984375 418.246094 577.449219 413.984375 C 586.597656 410.257812 584.515625 398.722656 587.171875 388.539062 C 587.761719 386.226562 587.402344 384.539062 588.5625 382.988281 L 588.5625 383.453125 L 596.898438 400.105469 C 603.0625 410.03125 614.015625 420.40625 623.292969 427.410156 C 628.101562 431.035156 631.929688 437.3125 638.109375 439.4375 L 638.109375 438.972656 L 637.644531 438.972656 C 636.441406 437.089844 634.554688 436.316406 633.011719 434.816406 C 629.390625 431.265625 625.355469 426.851562 622.359375 422.785156 C 613.917969 411.339844 606.46875 398.816406 599.675781 385.773438 C 596.429688 379.546875 593.609375 372.679688 590.878906 366.34375 C 589.828125 363.898438 589.839844 360.207031 587.640625 358.941406 C 584.644531 363.585938 580.230469 367.335938 577.914062 372.820312 C 574.207031 381.585938 573.730469 392.269531 572.359375 403.355469 C 571.546875 403.648438 571.90625 403.445312 571.433594 403.820312 C 564.984375 402.265625 562.714844 395.632812 560.320312 389.941406 C 554.257812 375.542969 553.136719 352.375 558.46875 335.8125 C 559.84375 331.527344 566.085938 318.023438 563.558594 314.066406 C 562.355469 310.117188 558.378906 307.789062 556.152344 304.808594 C 553.402344 301.082031 550.648438 296.160156 548.742188 291.855469 C 543.78125 280.632812 541.464844 268.042969 536.242188 256.691406 C 533.742188 251.269531 529.527344 245.785156 526.054688 241 C 522.214844 235.664062 517.917969 231.726562 514.945312 225.308594 C 513.882812 223.011719 512.449219 219.34375 514.019531 216.980469 C 514.171875 216.285156 514.5 215.6875 515.003906 215.1875 C 515.503906 214.683594 516.105469 214.355469 516.796875 214.203125 C 519.484375 212.136719 526.96875 214.890625 529.761719 216.054688 C 537.183594 219.136719 543.386719 222.070312 549.675781 226.234375 C 552.699219 228.195312 555.75 232.101562 559.398438 233.179688 L 563.558594 233.179688 C 570.078125 234.675781 577.382812 233.648438 583.46875 235.492188 C 594.234375 238.761719 603.875 243.847656 612.640625 249.371094 C 639.332031 266.210938 661.148438 290.179688 676.078125 318.808594 C 678.480469 323.410156 679.515625 327.808594 681.632812 332.6875 C 685.902344 342.496094 691.277344 352.667969 695.523438 362.292969 C 699.765625 371.90625 703.886719 381.597656 709.878906 389.589844 C 713.027344 393.789062 725.191406 396.046875 730.714844 398.378906 C 734.589844 400.015625 740.9375 401.71875 744.605469 403.929688 C 751.617188 408.15625 758.40625 413.1875 764.984375 417.816406 C 768.269531 420.132812 778.375 425.203125 778.875 429.382812 Z M 778.863281 429.257812 " fill-opacity="1" fill-rule="nonzero"/><path fill="#00618a" d="M 571.90625 252.988281 C 568.511719 252.925781 566.113281 253.359375 563.574219 253.914062 L 563.574219 254.378906 L 564.035156 254.378906 C 565.652344 257.703125 568.511719 259.84375 570.515625 262.707031 L 575.148438 272.417969 L 575.609375 271.957031 C 578.476562 269.9375 579.792969 266.707031 579.773438 261.777344 C 578.621094 260.566406 578.453125 259.054688 577.457031 257.609375 C 576.132812 255.6875 573.53125 254.597656 571.898438 252.980469 Z M 571.90625 252.988281 " fill-opacity="1" fill-rule="evenodd"/><path fill="#e48e00" d="M 768.027344 562.550781 C 768.027344 574.203125 777.242188 582.054688 787.550781 582.054688 C 797.855469 582.054688 807.070312 574.203125 807.070312 562.550781 C 807.070312 550.898438 797.855469 543.046875 787.550781 543.046875 C 777.242188 543.046875 768.027344 550.898438 768.027344 562.550781 Z M 802.695312 562.550781 C 802.695312 571.394531 795.933594 578 787.542969 578 C 779.0625 578 772.386719 571.394531 772.386719 562.550781 C 772.386719 553.707031 779.050781 547.101562 787.542969 547.101562 C 795.925781 547.101562 802.695312 553.707031 802.695312 562.550781 Z M 792.800781 573.683594 L 797.171875 573.683594 L 790.773438 563.90625 C 794.207031 563.542969 796.808594 561.875 796.808594 557.820312 C 796.808594 553.292969 793.941406 551.425781 788.429688 551.425781 L 779.730469 551.425781 L 779.730469 573.6875 L 783.480469 573.6875 L 783.480469 564.066406 L 786.96875 564.066406 L 792.796875 573.6875 Z M 783.480469 560.933594 L 783.480469 554.539062 L 787.800781 554.539062 C 790.039062 554.539062 792.746094 554.957031 792.746094 557.5625 C 792.746094 560.679688 790.300781 560.941406 787.488281 560.941406 L 783.480469 560.941406 Z M 783.480469 560.933594 " fill-opacity="1" fill-rule="evenodd"/><g fill="#000000" fill-opacity="1"><g transform="translate(222.862653, 477.34058)"><g><path d="M 5.5625 0 L 3.234375 0 L 3.234375 -21.421875 L 6.96875 -21.421875 L 13.46875 -3.28125 L 13.765625 -3.28125 L 20.265625 -21.421875 L 23.859375 -21.421875 L 23.859375 0 L 21.46875 0 L 21.46875 -17.46875 L 21.109375 -17.53125 L 14.78125 0 L 12.28125 0 L 5.9375 -17.53125 L 5.5625 -17.46875 Z M 5.5625 0 "/></g></g><g transform="translate(249.976909, 477.34058)"><g><path d="M 3.234375 6.859375 C 2.691406 6.859375 2.179688 6.8125 1.703125 6.71875 C 1.234375 6.625 0.828125 6.492188 0.484375 6.328125 L 0.921875 4.4375 L 1.1875 4.34375 C 1.414062 4.46875 1.707031 4.570312 2.0625 4.65625 C 2.414062 4.738281 2.78125 4.78125 3.15625 4.78125 C 3.800781 4.78125 4.335938 4.691406 4.765625 4.515625 C 5.203125 4.335938 5.570312 4.046875 5.875 3.640625 C 6.1875 3.234375 6.472656 2.675781 6.734375 1.96875 L 7.3125 0.375 L 0.828125 -16.15625 L 3.40625 -16.15625 L 8.484375 -2.96875 L 8.765625 -2.96875 L 13.6875 -16.15625 L 16.125 -16.15625 L 8.90625 2.53125 C 8.5 3.570312 8.039062 4.40625 7.53125 5.03125 C 7.019531 5.664062 6.414062 6.128906 5.71875 6.421875 C 5.03125 6.710938 4.203125 6.859375 3.234375 6.859375 Z M 3.234375 6.859375 "/></g></g><g transform="translate(267.013041, 477.34058)"><g><path d="M 9.359375 0.3125 C 8.015625 0.3125 6.804688 0.128906 5.734375 -0.234375 C 4.660156 -0.609375 3.769531 -1.09375 3.0625 -1.6875 C 2.351562 -2.28125 1.820312 -2.929688 1.46875 -3.640625 L 2.84375 -5.3125 L 3.203125 -5.3125 C 4.535156 -3.082031 6.585938 -1.96875 9.359375 -1.96875 C 10.972656 -1.96875 12.171875 -2.300781 12.953125 -2.96875 C 13.742188 -3.644531 14.140625 -4.582031 14.140625 -5.78125 C 14.140625 -6.488281 14.007812 -7.085938 13.75 -7.578125 C 13.488281 -8.066406 13.0625 -8.484375 12.46875 -8.828125 C 11.875 -9.171875 11.0625 -9.472656 10.03125 -9.734375 L 7.53125 -10.34375 C 5.664062 -10.789062 4.289062 -11.503906 3.40625 -12.484375 C 2.519531 -13.460938 2.078125 -14.707031 2.078125 -16.21875 C 2.078125 -17.28125 2.347656 -18.226562 2.890625 -19.0625 C 3.441406 -19.894531 4.242188 -20.546875 5.296875 -21.015625 C 6.359375 -21.484375 7.617188 -21.71875 9.078125 -21.71875 C 10.691406 -21.71875 12.050781 -21.488281 13.15625 -21.03125 C 14.269531 -20.582031 15.160156 -19.90625 15.828125 -19 L 14.59375 -17.34375 L 14.21875 -17.34375 C 13.601562 -18.09375 12.875 -18.644531 12.03125 -19 C 11.195312 -19.351562 10.210938 -19.53125 9.078125 -19.53125 C 7.597656 -19.53125 6.476562 -19.238281 5.71875 -18.65625 C 4.957031 -18.082031 4.578125 -17.289062 4.578125 -16.28125 C 4.578125 -15.3125 4.851562 -14.539062 5.40625 -13.96875 C 5.96875 -13.394531 6.910156 -12.953125 8.234375 -12.640625 L 10.796875 -12.03125 C 12.878906 -11.539062 14.382812 -10.789062 15.3125 -9.78125 C 16.25 -8.769531 16.71875 -7.476562 16.71875 -5.90625 C 16.71875 -4.695312 16.445312 -3.625 15.90625 -2.6875 C 15.363281 -1.757812 14.539062 -1.023438 13.4375 -0.484375 C 12.332031 0.046875 10.972656 0.3125 9.359375 0.3125 Z M 9.359375 0.3125 "/></g></g><g transform="translate(285.367533, 477.34058)"><g><path d="M 17.234375 5 C 15.453125 5 13.96875 4.585938 12.78125 3.765625 C 11.59375 2.941406 10.757812 1.757812 10.28125 0.21875 C 8.664062 0.0078125 7.25 -0.519531 6.03125 -1.375 C 4.820312 -2.238281 3.867188 -3.453125 3.171875 -5.015625 C 2.484375 -6.585938 2.140625 -8.484375 2.140625 -10.703125 C 2.140625 -13.160156 2.550781 -15.210938 3.375 -16.859375 C 4.207031 -18.503906 5.347656 -19.722656 6.796875 -20.515625 C 8.242188 -21.316406 9.894531 -21.71875 11.75 -21.71875 C 13.601562 -21.71875 15.253906 -21.316406 16.703125 -20.515625 C 18.148438 -19.722656 19.285156 -18.503906 20.109375 -16.859375 C 20.941406 -15.210938 21.359375 -13.160156 21.359375 -10.703125 C 21.359375 -7.359375 20.597656 -4.804688 19.078125 -3.046875 C 17.566406 -1.285156 15.5 -0.25 12.875 0.0625 L 12.78125 0.359375 C 13.132812 1.171875 13.703125 1.78125 14.484375 2.1875 C 15.273438 2.601562 16.195312 2.8125 17.25 2.8125 C 17.789062 2.8125 18.296875 2.742188 18.765625 2.609375 L 19.0625 2.671875 L 19.421875 4.609375 C 18.835938 4.867188 18.109375 5 17.234375 5 Z M 11.75 -2.015625 C 13.976562 -2.015625 15.6875 -2.710938 16.875 -4.109375 C 18.0625 -5.503906 18.65625 -7.703125 18.65625 -10.703125 C 18.65625 -13.710938 18.0625 -15.910156 16.875 -17.296875 C 15.6875 -18.691406 13.976562 -19.390625 11.75 -19.390625 C 7.132812 -19.390625 4.828125 -16.492188 4.828125 -10.703125 C 4.828125 -4.910156 7.132812 -2.015625 11.75 -2.015625 Z M 11.75 -2.015625 "/></g></g><g transform="translate(308.863625, 477.34058)"><g><path d="M 5.75 -21.421875 L 5.75 -2.078125 L 16.0625 -2.078125 L 16.0625 0 L 3.234375 0 L 3.234375 -21.421875 Z M 5.75 -21.421875 "/></g></g></g></svg>