<svg xmlns="http://www.w3.org/2000/svg" xmlns:xlink="http://www.w3.org/1999/xlink" width="1080" zoomAndPan="magnify" viewBox="0 0 810 809.999993" height="1080" preserveAspectRatio="xMidYMid meet" version="1.0"><defs><g/></defs><rect x="-81" width="972" fill="#007acc" y="-80.999999" height="971.999992" fill-opacity="1"/><path fill="#ffffff" d="M 179.085938 407.65625 L 178.832031 440.847656 L 284.257812 440.847656 L 284.257812 740.421875 L 358.832031 740.421875 L 358.832031 440.847656 L 464.261719 440.847656 L 464.261719 408.320312 C 464.261719 390.320312 463.875 375.257812 463.363281 374.878906 C 462.976562 374.371094 398.820312 374.117188 321.027344 374.246094 L 179.464844 374.625 Z M 179.085938 407.65625 " fill-opacity="1" fill-rule="nonzero"/><path fill="#ffffff" d="M 653.601562 373.707031 C 674.167969 378.832031 689.859375 387.976562 704.257812 402.878906 C 711.691406 410.855469 722.765625 425.375 723.652344 428.855469 C 723.90625 429.902344 688.691406 453.535156 667.332031 466.792969 C 666.574219 467.300781 663.503906 463.945312 660.023438 458.820312 C 649.613281 443.632812 638.667969 437.082031 621.960938 435.945312 C 597.40625 434.269531 581.585938 447.113281 581.714844 468.597656 C 581.714844 474.894531 582.628906 478.628906 585.195312 483.753906 C 590.605469 494.953125 600.632812 501.628906 632.117188 515.269531 C 690.113281 540.199219 714.921875 556.652344 730.359375 580.066406 C 747.574219 606.171875 751.433594 647.808594 739.726562 678.785156 C 726.878906 712.484375 694.988281 735.359375 650.121094 742.953125 C 636.230469 745.390625 603.324219 745.011719 588.390625 742.320312 C 555.863281 736.53125 525.011719 720.457031 505.996094 699.382812 C 498.53125 691.15625 484.007812 669.675781 484.894531 668.125 C 485.304688 667.617188 488.625 665.558594 492.359375 663.378906 C 495.96875 661.320312 509.605469 653.472656 522.449219 646.007812 L 545.707031 632.527344 L 550.609375 639.710938 C 557.414062 650.121094 572.347656 664.390625 581.332031 669.167969 C 607.183594 682.773438 642.652344 680.84375 660.148438 665.179688 C 667.617188 658.347656 670.6875 651.289062 670.6875 640.882812 C 670.6875 631.484375 669.546875 627.371094 664.644531 620.316406 C 658.347656 611.296875 645.5 603.703125 608.988281 587.914062 C 567.191406 569.910156 549.1875 558.710938 532.734375 540.960938 C 523.210938 530.675781 514.222656 514.222656 510.488281 500.460938 C 507.390625 489.039062 506.628906 460.371094 509.066406 448.789062 C 517.703125 408.417969 548.175781 380.257812 592.121094 371.902344 C 606.394531 369.214844 639.582031 370.226562 653.601562 373.707031 Z M 653.601562 373.707031 " fill-opacity="1" fill-rule="nonzero"/><g fill="#000000" fill-opacity="1"><g transform="translate(657.075025, 29.250019)"><g><path d="M 10.921875 -2.5625 L 11.6875 -0.84375 C 11.3125 -0.46875 10.8125 -0.179688 10.1875 0.015625 C 9.570312 0.210938 8.898438 0.3125 8.171875 0.3125 C 5.085938 0.3125 3.546875 -1.25 3.546875 -4.375 L 3.546875 -14.203125 L 0.734375 -14.203125 L 0.734375 -16.171875 L 3.546875 -16.171875 L 3.546875 -19.578125 L 5.9375 -19.984375 L 5.9375 -16.171875 L 11.140625 -16.171875 L 11.140625 -14.203125 L 5.9375 -14.203125 L 5.9375 -4.609375 C 5.9375 -2.753906 6.738281 -1.828125 8.34375 -1.828125 C 9.226562 -1.828125 9.988281 -2.070312 10.625 -2.5625 Z M 10.921875 -2.5625 "/></g></g><g transform="translate(669.379712, 29.250019)"><g><path d="M 3.234375 6.859375 C 2.691406 6.859375 2.179688 6.8125 1.703125 6.71875 C 1.234375 6.625 0.828125 6.492188 0.484375 6.328125 L 0.921875 4.4375 L 1.1875 4.34375 C 1.414062 4.46875 1.707031 4.570312 2.0625 4.65625 C 2.414062 4.738281 2.78125 4.78125 3.15625 4.78125 C 3.800781 4.78125 4.335938 4.691406 4.765625 4.515625 C 5.203125 4.335938 5.570312 4.046875 5.875 3.640625 C 6.1875 3.234375 6.472656 2.675781 6.734375 1.96875 L 7.3125 0.375 L 0.828125 -16.15625 L 3.40625 -16.15625 L 8.484375 -2.96875 L 8.765625 -2.96875 L 13.6875 -16.15625 L 16.125 -16.15625 L 8.90625 2.53125 C 8.5 3.570312 8.039062 4.40625 7.53125 5.03125 C 7.019531 5.664062 6.414062 6.128906 5.71875 6.421875 C 5.03125 6.710938 4.203125 6.859375 3.234375 6.859375 Z M 3.234375 6.859375 "/></g></g><g transform="translate(686.415844, 29.250019)"><g><path d="M 2.8125 6.546875 L 2.8125 -16.15625 L 5.203125 -16.15625 L 5.203125 -13.734375 L 5.515625 -13.6875 C 6.710938 -15.539062 8.472656 -16.46875 10.796875 -16.46875 C 12.140625 -16.46875 13.3125 -16.160156 14.3125 -15.546875 C 15.320312 -14.929688 16.101562 -13.992188 16.65625 -12.734375 C 17.21875 -11.484375 17.5 -9.929688 17.5 -8.078125 C 17.5 -6.222656 17.207031 -4.671875 16.625 -3.421875 C 16.039062 -2.171875 15.226562 -1.234375 14.1875 -0.609375 C 13.15625 0.00390625 11.96875 0.3125 10.625 0.3125 C 9.53125 0.3125 8.554688 0.125 7.703125 -0.25 C 6.859375 -0.632812 6.128906 -1.265625 5.515625 -2.140625 L 5.203125 -2.078125 L 5.203125 6.546875 Z M 10.09375 -1.828125 C 13.363281 -1.828125 15 -3.910156 15 -8.078125 C 15 -12.242188 13.363281 -14.328125 10.09375 -14.328125 C 9.132812 -14.328125 8.285156 -14.109375 7.546875 -13.671875 C 6.816406 -13.234375 6.242188 -12.546875 5.828125 -11.609375 C 5.410156 -10.671875 5.203125 -9.492188 5.203125 -8.078125 C 5.203125 -6.660156 5.410156 -5.484375 5.828125 -4.546875 C 6.242188 -3.617188 6.816406 -2.929688 7.546875 -2.484375 C 8.285156 -2.046875 9.132812 -1.828125 10.09375 -1.828125 Z M 10.09375 -1.828125 "/></g></g><g transform="translate(705.693187, 29.250019)"><g><path d="M 15.390625 -7.53125 L 4.296875 -7.53125 C 4.359375 -5.5625 4.828125 -4.117188 5.703125 -3.203125 C 6.578125 -2.285156 7.773438 -1.828125 9.296875 -1.828125 C 10.453125 -1.828125 11.378906 -2.03125 12.078125 -2.4375 C 12.785156 -2.851562 13.335938 -3.5 13.734375 -4.375 L 14.046875 -4.375 L 15.59375 -3.453125 C 15.125 -2.285156 14.375 -1.363281 13.34375 -0.6875 C 12.320312 -0.0195312 10.972656 0.3125 9.296875 0.3125 C 7.734375 0.3125 6.390625 0.00390625 5.265625 -0.609375 C 4.148438 -1.222656 3.285156 -2.15625 2.671875 -3.40625 C 2.066406 -4.65625 1.765625 -6.210938 1.765625 -8.078125 C 1.765625 -9.910156 2.082031 -11.457031 2.71875 -12.71875 C 3.363281 -13.976562 4.238281 -14.914062 5.34375 -15.53125 C 6.457031 -16.15625 7.726562 -16.46875 9.15625 -16.46875 C 11.226562 -16.46875 12.84375 -15.882812 14 -14.71875 C 15.164062 -13.550781 15.753906 -11.816406 15.765625 -9.515625 C 15.765625 -8.617188 15.742188 -8.015625 15.703125 -7.703125 Z M 13.40625 -9.515625 C 13.363281 -11.234375 12.976562 -12.484375 12.25 -13.265625 C 11.53125 -14.046875 10.5 -14.4375 9.15625 -14.4375 C 7.738281 -14.4375 6.625 -14.039062 5.8125 -13.25 C 5.007812 -12.46875 4.519531 -11.222656 4.34375 -9.515625 Z M 13.40625 -9.515625 "/></g></g><g transform="translate(722.919748, 29.250019)"><g><path d="M 7.375 0.3125 C 6.351562 0.3125 5.410156 0.175781 4.546875 -0.09375 C 3.679688 -0.363281 2.953125 -0.734375 2.359375 -1.203125 C 1.765625 -1.671875 1.34375 -2.195312 1.09375 -2.78125 L 2.5 -4.25 L 2.8125 -4.25 C 3.34375 -3.445312 3.976562 -2.84375 4.71875 -2.4375 C 5.457031 -2.03125 6.34375 -1.828125 7.375 -1.828125 C 8.5625 -1.828125 9.460938 -2.054688 10.078125 -2.515625 C 10.703125 -2.984375 11.015625 -3.632812 11.015625 -4.46875 C 11.015625 -5.101562 10.828125 -5.628906 10.453125 -6.046875 C 10.078125 -6.460938 9.46875 -6.769531 8.625 -6.96875 L 5.90625 -7.640625 C 4.445312 -7.992188 3.382812 -8.550781 2.71875 -9.3125 C 2.050781 -10.070312 1.71875 -11.015625 1.71875 -12.140625 C 1.71875 -13.023438 1.941406 -13.789062 2.390625 -14.4375 C 2.835938 -15.082031 3.484375 -15.582031 4.328125 -15.9375 C 5.171875 -16.289062 6.175781 -16.46875 7.34375 -16.46875 C 8.820312 -16.46875 9.988281 -16.257812 10.84375 -15.84375 C 11.695312 -15.425781 12.363281 -14.847656 12.84375 -14.109375 L 11.5 -12.78125 L 11.203125 -12.78125 C 10.691406 -13.382812 10.128906 -13.816406 9.515625 -14.078125 C 8.898438 -14.335938 8.175781 -14.46875 7.34375 -14.46875 C 6.28125 -14.46875 5.460938 -14.273438 4.890625 -13.890625 C 4.328125 -13.515625 4.046875 -12.96875 4.046875 -12.25 C 4.046875 -11.59375 4.242188 -11.0625 4.640625 -10.65625 C 5.046875 -10.257812 5.742188 -9.941406 6.734375 -9.703125 L 9.421875 -9.046875 C 10.828125 -8.722656 11.84375 -8.171875 12.46875 -7.390625 C 13.09375 -6.617188 13.40625 -5.65625 13.40625 -4.5 C 13.40625 -3.550781 13.179688 -2.710938 12.734375 -1.984375 C 12.285156 -1.265625 11.601562 -0.703125 10.6875 -0.296875 C 9.78125 0.109375 8.675781 0.3125 7.375 0.3125 Z M 7.375 0.3125 "/></g></g><g transform="translate(737.861154, 29.250019)"><g><path d="M 9.265625 0.3125 C 7.847656 0.3125 6.570312 -0.0078125 5.4375 -0.65625 C 4.300781 -1.3125 3.40625 -2.269531 2.75 -3.53125 C 2.09375 -4.800781 1.765625 -6.316406 1.765625 -8.078125 C 1.765625 -9.835938 2.09375 -11.347656 2.75 -12.609375 C 3.40625 -13.878906 4.300781 -14.835938 5.4375 -15.484375 C 6.570312 -16.140625 7.847656 -16.46875 9.265625 -16.46875 C 10.984375 -16.46875 12.347656 -16.144531 13.359375 -15.5 C 14.367188 -14.851562 15.097656 -13.992188 15.546875 -12.921875 L 13.921875 -11.75 L 13.625 -11.75 C 13.1875 -12.632812 12.625 -13.285156 11.9375 -13.703125 C 11.25 -14.117188 10.359375 -14.328125 9.265625 -14.328125 C 8.273438 -14.328125 7.398438 -14.09375 6.640625 -13.625 C 5.890625 -13.15625 5.304688 -12.453125 4.890625 -11.515625 C 4.484375 -10.578125 4.28125 -9.429688 4.28125 -8.078125 C 4.28125 -6.722656 4.488281 -5.578125 4.90625 -4.640625 C 5.320312 -3.710938 5.90625 -3.007812 6.65625 -2.53125 C 7.40625 -2.0625 8.273438 -1.828125 9.265625 -1.828125 C 10.390625 -1.828125 11.320312 -2.082031 12.0625 -2.59375 C 12.800781 -3.101562 13.378906 -3.90625 13.796875 -5 L 14.109375 -5 L 15.671875 -4.078125 C 15.253906 -2.710938 14.503906 -1.640625 13.421875 -0.859375 C 12.347656 -0.078125 10.960938 0.3125 9.265625 0.3125 Z M 9.265625 0.3125 "/></g></g><g transform="translate(754.516427, 29.250019)"><g><path d="M 2.8125 0 L 2.8125 -16.15625 L 5.078125 -16.15625 L 5.078125 -13.625 L 5.390625 -13.546875 C 6.140625 -15.378906 7.554688 -16.296875 9.640625 -16.296875 C 10.742188 -16.296875 11.566406 -16.097656 12.109375 -15.703125 L 11.5 -13.6875 L 11.203125 -13.625 C 10.597656 -13.925781 9.9375 -14.078125 9.21875 -14.078125 C 7.925781 -14.078125 6.929688 -13.59375 6.234375 -12.625 C 5.546875 -11.65625 5.203125 -10.085938 5.203125 -7.921875 L 5.203125 0 Z M 2.8125 0 "/></g></g><g transform="translate(766.996895, 29.250019)"><g><path d="M 4.015625 -19.28125 C 3.503906 -19.28125 3.085938 -19.4375 2.765625 -19.75 C 2.453125 -20.070312 2.296875 -20.476562 2.296875 -20.96875 C 2.296875 -21.445312 2.453125 -21.84375 2.765625 -22.15625 C 3.085938 -22.476562 3.503906 -22.640625 4.015625 -22.640625 C 4.523438 -22.640625 4.9375 -22.476562 5.25 -22.15625 C 5.570312 -21.84375 5.734375 -21.445312 5.734375 -20.96875 C 5.734375 -20.476562 5.570312 -20.070312 5.25 -19.75 C 4.9375 -19.4375 4.523438 -19.28125 4.015625 -19.28125 Z M 2.8125 0 L 2.8125 -16.15625 L 5.203125 -16.15625 L 5.203125 0 Z M 2.8125 0 "/></g></g><g transform="translate(775.00959, 29.250019)"><g><path d="M 2.8125 6.546875 L 2.8125 -16.15625 L 5.203125 -16.15625 L 5.203125 -13.734375 L 5.515625 -13.6875 C 6.710938 -15.539062 8.472656 -16.46875 10.796875 -16.46875 C 12.140625 -16.46875 13.3125 -16.160156 14.3125 -15.546875 C 15.320312 -14.929688 16.101562 -13.992188 16.65625 -12.734375 C 17.21875 -11.484375 17.5 -9.929688 17.5 -8.078125 C 17.5 -6.222656 17.207031 -4.671875 16.625 -3.421875 C 16.039062 -2.171875 15.226562 -1.234375 14.1875 -0.609375 C 13.15625 0.00390625 11.96875 0.3125 10.625 0.3125 C 9.53125 0.3125 8.554688 0.125 7.703125 -0.25 C 6.859375 -0.632812 6.128906 -1.265625 5.515625 -2.140625 L 5.203125 -2.078125 L 5.203125 6.546875 Z M 10.09375 -1.828125 C 13.363281 -1.828125 15 -3.910156 15 -8.078125 C 15 -12.242188 13.363281 -14.328125 10.09375 -14.328125 C 9.132812 -14.328125 8.285156 -14.109375 7.546875 -13.671875 C 6.816406 -13.234375 6.242188 -12.546875 5.828125 -11.609375 C 5.410156 -10.671875 5.203125 -9.492188 5.203125 -8.078125 C 5.203125 -6.660156 5.410156 -5.484375 5.828125 -4.546875 C 6.242188 -3.617188 6.816406 -2.929688 7.546875 -2.484375 C 8.285156 -2.046875 9.132812 -1.828125 10.09375 -1.828125 Z M 10.09375 -1.828125 "/></g></g><g transform="translate(794.286933, 29.250019)"><g><path d="M 10.921875 -2.5625 L 11.6875 -0.84375 C 11.3125 -0.46875 10.8125 -0.179688 10.1875 0.015625 C 9.570312 0.210938 8.898438 0.3125 8.171875 0.3125 C 5.085938 0.3125 3.546875 -1.25 3.546875 -4.375 L 3.546875 -14.203125 L 0.734375 -14.203125 L 0.734375 -16.171875 L 3.546875 -16.171875 L 3.546875 -19.578125 L 5.9375 -19.984375 L 5.9375 -16.171875 L 11.140625 -16.171875 L 11.140625 -14.203125 L 5.9375 -14.203125 L 5.9375 -4.609375 C 5.9375 -2.753906 6.738281 -1.828125 8.34375 -1.828125 C 9.226562 -1.828125 9.988281 -2.070312 10.625 -2.5625 Z M 10.921875 -2.5625 "/></g></g></g></svg>